<svg width="199" height="136" viewBox="0 0 199 136" fill="none" xmlns="http://www.w3.org/2000/svg">
<g clip-path="url(#clip0_24_859)">
<path d="M117.298 9.6897H95.4458V10.1239H117.298V9.6897Z" fill="#CCCCCC"/>
<path d="M78.3804 9.6897H9.07812V10.1239H78.3804V9.6897Z" fill="#CCCCCC"/>
<path d="M9.07803 18.8074C13.7905 18.8074 17.6107 14.8224 17.6107 9.90662C17.6107 4.99087 13.7905 1.00586 9.07803 1.00586C4.3656 1.00586 0.54541 4.99087 0.54541 9.90662C0.54541 14.8224 4.3656 18.8074 9.07803 18.8074Z" fill="#FF9600"/>
<path d="M47.9955 18.8074C52.708 18.8074 56.5281 14.8224 56.5281 9.90662C56.5281 4.99087 52.708 1.00586 47.9955 1.00586C43.2831 1.00586 39.4629 4.99087 39.4629 9.90662C39.4629 14.8224 43.2831 18.8074 47.9955 18.8074Z" fill="#3F3D56"/>
<path d="M86.912 19.0248C85.1832 19.0248 83.4933 18.4901 82.0559 17.4882C80.6184 16.4863 79.4981 15.0622 78.8365 13.3961C78.1749 11.73 78.0018 9.89671 78.3391 8.12799C78.6764 6.35927 79.5089 4.7346 80.7313 3.45942C81.9537 2.18425 83.5112 1.31584 85.2068 0.964023C86.9023 0.612203 88.6598 0.792767 90.257 1.48289C91.8542 2.17301 93.2193 3.34168 94.1798 4.84113C95.1403 6.34058 95.6529 8.10345 95.6529 9.90682C95.6529 12.3251 94.732 14.6443 93.0928 16.3542C91.4535 18.0642 89.2303 19.0248 86.912 19.0248ZM86.912 1.22307C85.2656 1.22307 83.6561 1.73236 82.2871 2.68655C80.9182 3.64073 79.8512 4.99695 79.2211 6.5837C78.591 8.17045 78.4262 9.91646 78.7474 11.6009C79.0686 13.2854 79.8614 14.8327 81.0256 16.0472C82.1899 17.2616 83.6732 18.0887 85.288 18.4237C86.9028 18.7588 88.5766 18.5868 90.0977 17.9296C91.6188 17.2723 92.919 16.1593 93.8337 14.7313C94.7484 13.3032 95.2366 11.6243 95.2366 9.90682C95.2366 7.60375 94.3596 5.395 92.7984 3.76648C91.2372 2.13796 89.1198 1.22307 86.912 1.22307Z" fill="#CCCCCC"/>
<path d="M125.83 19.0248C124.101 19.0248 122.411 18.4901 120.973 17.4882C119.536 16.4863 118.416 15.0622 117.754 13.3961C117.092 11.73 116.919 9.89671 117.257 8.12799C117.594 6.35927 118.426 4.7346 119.649 3.45942C120.871 2.18425 122.429 1.31584 124.124 0.964023C125.82 0.612203 127.577 0.792767 129.175 1.48289C130.772 2.17301 132.137 3.34168 133.097 4.84113C134.058 6.34058 134.57 8.10345 134.57 9.90682C134.57 12.3251 133.649 14.6443 132.01 16.3542C130.371 18.0642 128.148 19.0248 125.83 19.0248ZM125.83 1.22307C124.183 1.22307 122.574 1.73236 121.205 2.68655C119.836 3.64073 118.769 4.99695 118.139 6.5837C117.509 8.17045 117.344 9.91646 117.665 11.6009C117.986 13.2854 118.779 14.8327 119.943 16.0472C121.107 17.2616 122.591 18.0887 124.205 18.4237C125.82 18.7588 127.494 18.5868 129.015 17.9296C130.536 17.2723 131.836 16.1593 132.751 14.7313C133.666 13.3032 134.154 11.6243 134.154 9.90682C134.154 8.76646 133.939 7.63726 133.52 6.5837C133.102 5.53014 132.489 4.57285 131.716 3.76648C130.943 2.96012 130.025 2.32048 129.015 1.88408C128.005 1.44768 126.923 1.22307 125.83 1.22307Z" fill="#CCCCCC"/>
<path d="M8.42124 12.5604C8.27135 12.5606 8.12548 12.5099 8.00564 12.4159L7.99825 12.4102L6.43216 11.1606C6.28568 11.0435 6.18982 10.8704 6.16566 10.6796C6.1415 10.4887 6.19101 10.2956 6.30332 10.1428C6.41562 9.99003 6.58151 9.89003 6.7645 9.86483C6.94748 9.83962 7.13257 9.89128 7.27905 10.0084L8.29332 10.8198L10.6902 7.5578C10.8024 7.40509 10.9682 7.30514 11.1511 7.27993C11.334 7.25473 11.519 7.30634 11.6654 7.42341L11.6506 7.44485L11.6659 7.42341C11.8122 7.54066 11.9078 7.71367 11.932 7.90445C11.9561 8.09524 11.9066 8.2882 11.7945 8.44099L8.97513 12.276C8.90983 12.3644 8.82587 12.436 8.72976 12.485C8.63366 12.5341 8.52801 12.5594 8.421 12.559L8.42124 12.5604Z" fill="white"/>
<path d="M152.141 47.9853C152.3 48.0614 152.454 48.1506 152.599 48.2522L167.181 41.7604L167.701 37.7536L173.527 37.7163L173.183 46.9066L153.937 52.2165C153.897 52.356 153.848 52.4927 153.791 52.626C153.513 53.2453 153.066 53.7651 152.505 54.12C151.945 54.4749 151.296 54.6491 150.641 54.6208C149.986 54.5925 149.353 54.3628 148.823 53.9607C148.292 53.5586 147.888 53.002 147.659 52.3607C147.431 51.7195 147.39 51.0222 147.54 50.3565C147.691 49.6907 148.026 49.0862 148.505 48.6188C148.984 48.1514 149.584 47.842 150.231 47.7294C150.878 47.6168 151.542 47.7061 152.14 47.986L152.141 47.9853Z" fill="#FEB8B8"/>
<path d="M175.646 131.261H171.66L169.764 115.224H175.647L175.646 131.261Z" fill="#FEB8B8"/>
<path d="M168.814 130.073H176.5V135.12H163.974C163.974 133.781 164.484 132.497 165.391 131.55C166.299 130.603 167.53 130.071 168.814 130.071V130.073Z" fill="#2F2E41"/>
<path d="M191.147 130.086L187.181 130.493L183.787 114.728L189.641 114.128L191.147 130.086Z" fill="#FEB8B8"/>
<path d="M184.233 129.604L191.882 128.818L192.356 133.841L179.892 135.122C179.767 133.79 180.153 132.46 180.967 131.425C181.781 130.39 182.956 129.735 184.233 129.604H184.233Z" fill="#2F2E41"/>
<path d="M176.756 20.7439C181.166 20.7439 184.74 17.0148 184.74 12.4147C184.74 7.81457 181.166 4.08545 176.756 4.08545C172.346 4.08545 168.771 7.81457 168.771 12.4147C168.771 17.0148 172.346 20.7439 176.756 20.7439Z" fill="#FEB8B8"/>
<path d="M170.77 128.018C170.427 128.018 170.095 127.893 169.833 127.663C169.57 127.434 169.394 127.115 169.334 126.763C167.273 114.819 160.528 75.7581 160.367 74.6753C160.363 74.6504 160.361 74.6253 160.361 74.6001V71.6873C160.361 71.5812 160.393 71.4778 160.452 71.3915L161.343 70.091C161.385 70.0283 161.441 69.9767 161.505 69.9399C161.57 69.9032 161.641 69.8824 161.715 69.879C166.794 69.6307 183.426 68.9026 184.23 69.9498C185.037 71.0011 184.75 74.1914 184.685 74.8198L184.688 74.8853L192.161 124.736C192.22 125.134 192.126 125.54 191.899 125.866C191.673 126.192 191.333 126.411 190.953 126.478L186.286 127.28C185.938 127.338 185.582 127.264 185.282 127.072C184.982 126.879 184.759 126.581 184.652 126.231C183.208 121.419 178.368 105.233 176.691 98.9693C176.681 98.928 176.658 98.8918 176.624 98.8679C176.591 98.8439 176.55 98.834 176.51 98.84C176.47 98.8461 176.433 98.8677 176.407 98.9006C176.382 98.9335 176.369 98.9752 176.372 99.0175C176.455 104.988 176.658 120.221 176.729 125.482L176.737 126.049C176.74 126.432 176.605 126.803 176.358 127.088C176.112 127.373 175.772 127.551 175.406 127.587L170.906 128.012C170.86 128.017 170.815 128.018 170.77 128.018Z" fill="#2F2E41"/>
<path d="M171.688 24.0193C170.295 24.8834 169.461 26.4711 168.982 28.0896C168.097 31.0811 167.563 34.174 167.395 37.3001L166.889 46.6592L160.629 71.4732C166.054 76.262 169.184 75.1733 176.487 71.2564C183.791 67.3395 184.625 72.5623 184.625 72.5623L186.086 51.4489L188.172 28.3774C187.704 27.7891 187.174 27.2574 186.592 26.7924C184.663 25.2276 182.419 24.1399 180.029 23.6112C177.639 23.0825 175.165 23.1266 172.794 23.7401L171.688 24.0193Z" fill="#FF9600"/>
<path d="M169.655 52.9967C169.823 53.0623 169.986 53.1417 170.143 53.2341L184.561 45.7055L184.8 41.6272L190.747 41.1995L191.066 50.4962L171.798 57.1436C171.641 57.8479 171.282 58.4856 170.769 58.9718C170.256 59.458 169.613 59.7697 168.926 59.8655C168.239 59.9612 167.54 59.8365 166.923 59.5078C166.305 59.1791 165.798 58.6621 165.469 58.0256C165.14 57.389 165.005 56.663 165.081 55.9443C165.158 55.2255 165.442 54.5481 165.896 54.002C166.351 53.4559 166.954 53.0671 167.625 52.8873C168.297 52.7075 169.005 52.7452 169.655 52.9954L169.655 52.9967Z" fill="#FEB8B8"/>
<path d="M188.068 28.4815C191.615 29.7874 192.241 43.9369 192.241 43.9369C188.067 41.5426 183.059 45.4605 183.059 45.4605C183.059 45.4605 182.016 41.7599 180.764 36.9716C180.386 35.6246 180.341 34.1998 180.633 32.8297C180.925 31.4596 181.544 30.1888 182.433 29.1356C182.433 29.1356 184.521 27.1749 188.068 28.4815Z" fill="#FF9600"/>
<path d="M183.914 14.6168C182.919 13.7866 181.562 15.295 181.562 15.295L180.766 7.82489C180.766 7.82489 175.792 8.44651 172.608 7.61728C169.424 6.78804 168.927 10.6279 168.927 10.6279C168.763 9.07715 168.729 7.51439 168.827 5.95759C169.026 4.08958 171.613 2.22157 176.189 0.976147C180.765 -0.269275 183.153 5.12739 183.153 5.12739C186.338 6.78659 184.91 15.4479 183.914 14.6168Z" fill="#2F2E41"/>
<path d="M198.273 135.122H28.0208V135.649H198.273V135.122Z" fill="#E6E6E6"/>
<path d="M44.4449 125.807C45.1734 126.074 45.9556 126.141 46.7161 126.001C47.4766 125.862 48.1898 125.52 48.7869 125.009C50.3078 123.678 50.7846 121.484 51.1724 119.453L52.32 113.445L49.9176 115.17C48.1899 116.411 46.4234 117.692 45.2269 119.49C44.0305 121.287 43.5084 123.741 44.4696 125.686" fill="#E6E6E6"/>
<path d="M44.8159 133.499C44.5134 131.201 44.2024 128.873 44.4146 126.551C44.603 124.488 45.2063 122.473 46.4346 120.821C47.0865 119.946 47.8798 119.196 48.7788 118.605C49.0131 118.451 49.229 118.838 48.9956 118.992C47.4398 120.017 46.2364 121.532 45.5588 123.316C44.8108 125.301 44.6907 127.465 44.82 129.573C44.8981 130.848 45.0631 132.115 45.2296 133.38C45.2427 133.437 45.2345 133.497 45.2066 133.548C45.1788 133.599 45.1333 133.638 45.0795 133.655C45.0246 133.67 44.9661 133.663 44.9166 133.633C44.8672 133.604 44.8308 133.556 44.8154 133.499L44.8159 133.499Z" fill="#F2F2F2"/>
<path d="M46.9924 129.811C47.3049 130.307 47.7343 130.71 48.2395 130.982C48.7446 131.254 49.3084 131.386 49.8764 131.364C51.3363 131.292 52.5535 130.229 53.6491 129.221L56.8898 126.236L54.7451 126.129C53.2028 126.052 51.6205 125.98 50.1505 126.476C48.6804 126.973 47.3265 128.167 47.058 129.752" fill="#E6E6E6"/>
<path d="M43.9612 134.82C45.4157 132.133 47.1054 129.147 50.1223 128.192C50.9612 127.928 51.8408 127.833 52.7138 127.913C52.989 127.937 52.9202 128.381 52.6445 128.356C51.1812 128.229 49.7207 128.632 48.5089 129.497C47.3427 130.325 46.4349 131.476 45.6665 132.697C45.1957 133.444 44.7741 134.224 44.3525 135.003C44.2181 135.251 43.8256 135.072 43.9612 134.82Z" fill="#F2F2F2"/>
<path d="M146.562 57.291H73.674C73.3161 57.2906 72.9731 57.1421 72.72 56.8781C72.467 56.6142 72.3246 56.2563 72.3242 55.883V37.0225C72.3246 36.6492 72.467 36.2913 72.72 36.0274C72.9731 35.7634 73.3161 35.6149 73.674 35.6145H146.562C146.92 35.6149 147.263 35.7634 147.516 36.0274C147.769 36.2913 147.911 36.6492 147.912 37.0225V55.883C147.911 56.2563 147.769 56.6142 147.516 56.8781C147.263 57.1421 146.92 57.2906 146.562 57.291ZM73.674 36.1778C73.4592 36.1781 73.2534 36.2672 73.1015 36.4256C72.9497 36.584 72.8643 36.7987 72.864 37.0227V55.8833C72.8642 56.1073 72.9496 56.3221 73.1015 56.4805C73.2533 56.6389 73.4592 56.728 73.674 56.7282H146.562C146.777 56.728 146.983 56.6389 147.135 56.4805C147.287 56.3221 147.372 56.1073 147.372 55.8833V37.0225C147.372 36.7985 147.287 36.5837 147.135 36.4253C146.983 36.2669 146.777 36.1778 146.562 36.1776L73.674 36.1778Z" fill="#E6E6E6"/>
<path d="M97.6979 41.9053C97.4548 41.9053 97.2217 42.006 97.0499 42.1853C96.878 42.3645 96.7815 42.6077 96.7815 42.8612C96.7815 43.1147 96.878 43.3579 97.0499 43.5371C97.2217 43.7164 97.4548 43.8171 97.6979 43.8171H140.898C141.142 43.8171 141.375 43.7164 141.546 43.5371C141.718 43.3579 141.815 43.1147 141.815 42.8612C141.815 42.6077 141.718 42.3645 141.546 42.1853C141.375 42.006 141.142 41.9053 140.898 41.9053H97.6979Z" fill="#E6E6E6"/>
<path d="M97.6979 47.6409C97.4548 47.6409 97.2217 47.7416 97.0499 47.9208C96.878 48.1001 96.7815 48.3433 96.7815 48.5968C96.7815 48.8503 96.878 49.0935 97.0499 49.2727C97.2217 49.452 97.4548 49.5527 97.6979 49.5527H116.287C116.53 49.5527 116.763 49.452 116.935 49.2727C117.107 49.0935 117.204 48.8503 117.204 48.5968C117.204 48.3433 117.107 48.1001 116.935 47.9208C116.763 47.7416 116.53 47.6409 116.287 47.6409H97.6979Z" fill="#E6E6E6"/>
<path d="M85.0511 51.421C88.0877 51.421 90.5494 48.8531 90.5494 45.6855C90.5494 42.5178 88.0877 39.95 85.0511 39.95C82.0144 39.95 79.5527 42.5178 79.5527 45.6855C79.5527 48.8531 82.0144 51.421 85.0511 51.421Z" fill="#E6E6E6"/>
<path d="M84.1869 48.873C84.0022 48.8733 83.8224 48.8109 83.6746 48.6953L83.6654 48.688L81.7356 47.1481C81.555 47.0037 81.4367 46.7904 81.4068 46.5551C81.377 46.3198 81.4379 46.0817 81.5763 45.8933C81.7147 45.7048 81.9192 45.5814 82.1448 45.5503C82.3704 45.5191 82.5986 45.5827 82.7792 45.7271L84.0292 46.7268L86.983 42.7071C87.1213 42.5189 87.3256 42.3957 87.551 42.3646C87.7763 42.3336 88.0043 42.3971 88.1847 42.5414L88.1665 42.5679L88.1854 42.5414C88.3657 42.6859 88.4836 42.899 88.5133 43.1341C88.543 43.3692 88.4822 43.6069 88.344 43.7952L84.8699 48.524C84.7895 48.6329 84.6862 48.721 84.5679 48.7815C84.4496 48.8419 84.3196 48.8732 84.1879 48.8728L84.1869 48.873Z" fill="#FF9600"/>
</g>
<defs>
<clipPath id="clip0_24_859">
<rect width="197.727" height="134.86" fill="white" transform="translate(0.54541 0.788818)"/>
</clipPath>
</defs>
</svg>
