<svg width="339" height="192" viewBox="0 0 339 192" fill="none" xmlns="http://www.w3.org/2000/svg">
<g clip-path="url(#clip0_22_79)">
<path d="M312.351 191.624C317.311 191.624 321.331 190.95 321.331 190.12C321.331 189.289 317.311 188.615 312.351 188.615C307.392 188.615 303.371 189.289 303.371 190.12C303.371 190.95 307.392 191.624 312.351 191.624Z" fill="#F2F2F2"/>
<path d="M322.828 46.4486H322.08V62.2449H322.828V46.4486Z" fill="#F2F2F2"/>
<path d="M314.596 36.2938H310.106V192H314.596V36.2938Z" fill="#F2F2F2"/>
<path d="M332.907 48.5171H291.795C291.344 48.5172 290.898 48.4208 290.487 48.2344C290.076 48.048 289.709 47.7758 289.411 47.436C289.112 47.0962 288.889 46.6964 288.756 46.2633C288.623 45.8302 288.583 45.3736 288.639 44.9238L293.878 2.80038C293.975 2.02765 294.349 1.31701 294.93 0.801541C295.511 0.286068 296.259 0.00110183 297.033 0H327.669C328.444 0.00110172 329.192 0.286068 329.773 0.801541C330.354 1.31701 330.728 2.02765 330.825 2.80038L336.063 44.9238C336.119 45.3736 336.079 45.8302 335.946 46.2633C335.813 46.6965 335.59 47.0962 335.292 47.436C334.993 47.7758 334.626 48.048 334.215 48.2344C333.804 48.4208 333.358 48.5172 332.907 48.5171Z" fill="#F2F2F2"/>
<path d="M322.454 64.8776C323.9 64.8776 325.073 63.6989 325.073 62.2449C325.073 60.7909 323.9 59.6122 322.454 59.6122C321.007 59.6122 319.835 60.7909 319.835 62.2449C319.835 63.6989 321.007 64.8776 322.454 64.8776Z" fill="#F2F2F2"/>
<path d="M46.9811 150.202C45.0908 156.793 39.5712 161.408 33.8135 165.327C33.0096 165.875 32.2054 166.41 31.401 166.932C31.3955 166.934 31.3899 166.939 31.3844 166.942C31.3457 166.967 31.3069 166.992 31.2709 167.017C31.1048 167.125 30.9387 167.232 30.7741 167.339L30.8645 167.379C30.8645 167.379 30.9533 167.427 30.8562 167.387C30.8273 167.375 30.797 167.364 30.7681 167.352C27.4233 165.996 24.019 164.54 21.4557 162C18.7967 159.362 17.2427 155.225 18.6826 151.759C18.8718 151.305 19.1109 150.874 19.3953 150.473C19.5121 150.305 19.6379 150.145 19.7688 149.987C20.5631 149.012 21.6012 148.268 22.7763 147.831C23.9515 147.393 25.2214 147.279 26.4554 147.498C27.6895 147.717 28.843 148.263 29.7976 149.08C30.7521 149.896 31.4732 150.953 31.8866 152.142C32.3096 148.183 29.0621 144.867 25.9368 142.42C22.8101 139.975 19.2573 137.311 18.6529 133.375C18.3153 131.184 19.0731 129.062 20.4535 127.358C20.4962 127.306 20.5389 127.254 20.5829 127.204C22.2632 125.219 24.6266 123.945 27.201 123.635C31.9953 123.134 36.6523 125.685 40.1353 129.036C45.7411 134.427 49.1301 142.707 46.9811 150.202Z" fill="#F2F2F2"/>
<path d="M37.9695 141.58C38.8896 143.019 39.5961 144.585 40.0665 146.229C40.4644 147.698 40.6414 149.219 40.5919 150.741C40.4635 153.872 39.5888 156.927 38.0414 159.649C36.8758 161.713 35.4552 163.621 33.8135 165.327C33.0096 165.875 32.2054 166.41 31.401 166.932C31.3955 166.934 31.3899 166.939 31.3844 166.942C31.3457 166.967 31.3069 166.992 31.2708 167.017C31.1048 167.125 30.9387 167.232 30.7741 167.339C30.7741 167.339 30.9533 167.427 30.8562 167.387C30.8273 167.375 30.797 167.364 30.7681 167.352C31.0679 164.881 30.7742 162.374 29.9117 160.041C29.0491 157.709 27.6429 155.617 25.8107 153.943C23.9741 152.295 21.7759 151.106 19.3953 150.473C19.5121 150.305 19.6379 150.144 19.7688 149.987C20.6883 150.246 21.5831 150.586 22.4429 151.004C25.5164 152.487 28.033 154.926 29.6202 157.959C31.0445 160.713 31.6575 163.819 31.3873 166.911C31.5247 166.786 31.6623 166.658 31.7957 166.531C34.3374 164.149 36.595 161.415 38.1228 158.26C39.4483 155.588 40.0998 152.629 40.0198 149.644C39.8951 146.39 38.6051 143.375 36.7372 140.751C34.6901 137.951 32.2717 135.446 29.5492 133.305C26.8056 131.096 23.8033 129.233 20.6094 127.757C20.5374 127.723 20.481 127.663 20.452 127.589C20.423 127.514 20.4235 127.431 20.4535 127.357C20.4748 127.291 20.5213 127.236 20.5829 127.204C20.6146 127.19 20.649 127.184 20.6835 127.185C20.718 127.186 20.7517 127.196 20.7821 127.212C21.1765 127.395 21.5681 127.58 21.9566 127.773C25.1921 129.38 28.2164 131.385 30.9601 133.742C33.6102 136.013 36.1052 138.608 37.9695 141.58Z" fill="white"/>
<path d="M19.6909 166.801H40.4064C40.6337 166.801 40.8583 166.85 41.0654 166.944C41.2726 167.038 41.4575 167.175 41.6079 167.346C41.7582 167.517 41.8707 167.719 41.9377 167.937C42.0047 168.155 42.0248 168.385 41.9966 168.612L39.3571 189.837C39.3081 190.226 39.1196 190.584 38.8269 190.844C38.5342 191.104 38.1574 191.247 37.7669 191.248H22.3304C21.94 191.247 21.5631 191.104 21.2704 190.844C20.9777 190.584 20.7892 190.226 20.7402 189.837L18.1007 168.612C18.0725 168.385 18.0926 168.155 18.1596 167.937C18.2267 167.719 18.3391 167.517 18.4895 167.346C18.6399 167.175 18.8248 167.038 19.0319 166.944C19.239 166.85 19.4637 166.801 19.6909 166.801Z" fill="#F2F2F2"/>
<path d="M87.2337 191.411C88.6656 191.411 89.8263 190.244 89.8263 188.805C89.8263 187.366 88.6656 186.199 87.2337 186.199C85.8019 186.199 84.6412 187.366 84.6412 188.805C84.6412 190.244 85.8019 191.411 87.2337 191.411Z" fill="#CCCCCC"/>
<path d="M250.995 191.411C252.427 191.411 253.588 190.244 253.588 188.805C253.588 187.366 252.427 186.199 250.995 186.199C249.564 186.199 248.403 187.366 248.403 188.805C248.403 190.244 249.564 191.411 250.995 191.411Z" fill="#CCCCCC"/>
<path d="M134.764 152.54H94.1472C92.257 152.537 90.4448 151.782 89.1082 150.438C87.7717 149.095 87.0198 147.273 87.0177 145.373V117.577C87.0198 115.677 87.7717 113.856 89.1082 112.512C90.4448 111.169 92.257 110.413 94.1472 110.411H134.764C136.654 110.413 138.466 111.169 139.802 112.512C141.139 113.856 141.891 115.677 141.893 117.577V145.373C141.891 147.273 141.139 149.095 139.802 150.438C138.466 151.782 136.654 152.537 134.764 152.54Z" fill="#E6E6E6"/>
<path d="M189.423 152.757H148.806C146.916 152.755 145.104 151.999 143.767 150.655C142.431 149.312 141.679 147.49 141.677 145.59V117.794C141.679 115.894 142.431 114.073 143.767 112.729C145.104 111.386 146.916 110.63 148.806 110.628H189.423C191.313 110.63 193.125 111.386 194.462 112.729C195.798 114.073 196.55 115.894 196.552 117.794V145.59C196.55 147.49 195.798 149.312 194.462 150.655C193.125 151.999 191.313 152.755 189.423 152.757Z" fill="#E6E6E6"/>
<path d="M244.082 152.974H203.466C201.575 152.972 199.763 152.216 198.427 150.873C197.09 149.529 196.338 147.708 196.336 145.808V118.011C196.338 116.111 197.09 114.29 198.427 112.946C199.763 111.603 201.575 110.847 203.466 110.845H244.082C245.972 110.847 247.784 111.603 249.121 112.946C250.458 114.29 251.209 116.111 251.211 118.011V145.808C251.209 147.708 250.458 149.529 249.121 150.873C247.784 152.216 245.972 152.972 244.082 152.974Z" fill="#E6E6E6"/>
<path d="M259.637 151.019H80.7524V188.588H259.637V151.019Z" fill="#E6E6E6"/>
<path d="M87.2337 188.805H79.4561C75.5249 188.805 72.3267 185.155 72.3267 180.668V141.464H87.2337V188.805Z" fill="#E6E6E6"/>
<path d="M258.773 188.805H250.995V135.384H265.902V179.623C265.902 184.686 262.704 188.805 258.773 188.805Z" fill="#E6E6E6"/>
<path d="M142.109 158.837H87.2338V147.111C105.526 136.564 123.817 136.564 142.109 147.111V158.837Z" fill="#CCCCCC"/>
<path d="M196.768 159.054H141.893V147.328C160.185 136.781 178.477 136.781 196.768 147.328V159.054Z" fill="#CCCCCC"/>
<path d="M251.428 159.271H196.552V147.545C214.844 136.998 233.136 136.998 251.428 147.545V159.271Z" fill="#CCCCCC"/>
<path d="M76.6476 151.454C83.6873 151.454 89.3942 145.718 89.3942 138.641C89.3942 131.565 83.6873 125.829 76.6476 125.829C69.6078 125.829 63.9009 131.565 63.9009 138.641C63.9009 145.718 69.6078 151.454 76.6476 151.454Z" fill="#CCCCCC"/>
<path d="M263.31 151.019C270.35 151.019 276.057 145.283 276.057 138.207C276.057 131.131 270.35 125.395 263.31 125.395C256.27 125.395 250.563 131.131 250.563 138.207C250.563 145.283 256.27 151.019 263.31 151.019Z" fill="#CCCCCC"/>
<path d="M225.762 113.107C225.792 113.313 225.805 113.521 225.802 113.729L241.081 124.314L245.155 122.375L248.87 128.173L241.989 132.31C241.433 132.644 240.784 132.788 240.14 132.72C239.496 132.652 238.891 132.376 238.416 131.933L222.942 117.498C222.175 117.715 221.359 117.692 220.605 117.432C219.85 117.172 219.192 116.687 218.719 116.042C218.245 115.397 217.978 114.623 217.953 113.821C217.928 113.02 218.146 112.23 218.578 111.556C219.011 110.883 219.637 110.358 220.374 110.05C221.111 109.743 221.923 109.669 222.703 109.837C223.483 110.006 224.193 110.409 224.74 110.993C225.286 111.577 225.643 112.314 225.762 113.107Z" fill="#FFB8B8"/>
<path d="M241.375 123.403C241.443 123.169 241.559 122.953 241.717 122.769C241.875 122.585 242.071 122.437 242.291 122.335L249.974 118.797C251.011 118.118 252.274 117.881 253.485 118.136C254.697 118.392 255.758 119.12 256.436 120.161C257.115 121.202 257.355 122.47 257.104 123.689C256.853 124.907 256.132 125.976 255.098 126.661L248.747 132.306C248.565 132.467 248.352 132.587 248.12 132.658C247.889 132.728 247.645 132.748 247.405 132.715C247.165 132.682 246.935 132.598 246.731 132.468C246.526 132.338 246.352 132.165 246.22 131.961L241.581 124.797C241.449 124.593 241.362 124.363 241.327 124.123C241.291 123.882 241.308 123.636 241.375 123.403Z" fill="#6C63FF"/>
<path d="M225.569 113.797L225.493 113.802L225.283 110.889C225.216 109.958 224.617 109.243 223.945 109.292L219.489 109.616C218.817 109.665 217.58 110.513 217.647 111.445L217.701 112.195L218.798 127.425C218.865 128.356 220.21 129.017 220.883 128.969L225.338 128.644C226.01 128.596 226.5 127.801 226.433 126.87L225.642 115.876L225.719 115.87L225.569 113.797Z" fill="#4B4B4B"/>
<path d="M225.025 110.92L226.173 126.877C226.223 127.573 225.857 128.166 225.355 128.202L220.879 128.528C220.377 128.564 219.929 128.03 219.879 127.335L218.731 111.378C218.68 110.682 219.047 110.089 219.549 110.052L220.092 110.013C220.054 110.155 220.062 110.305 220.115 110.442C220.168 110.579 220.262 110.696 220.385 110.776C220.437 110.801 220.494 110.812 220.551 110.808L223.103 110.622C223.342 110.605 223.516 110.323 223.492 109.992C223.486 109.916 223.47 109.841 223.444 109.769L224.025 109.727C224.527 109.69 224.975 110.224 225.025 110.92Z" fill="white"/>
<path d="M162.226 147.767L160.75 143.401L176.8 135.599L178.979 142.043L162.226 147.767Z" fill="#FFB8B8"/>
<path d="M158.393 150.319L153.632 136.242L153.81 136.182C154.525 135.937 155.282 135.837 156.037 135.886C156.791 135.935 157.528 136.134 158.207 136.469C158.885 136.805 159.491 137.272 159.989 137.843C160.488 138.414 160.87 139.079 161.113 139.798L164.021 148.396L158.393 150.319Z" fill="#4B4B4B"/>
<path d="M225.926 150.882C222.484 151.077 219.052 150.354 215.976 148.788L197.103 135.883L175.066 144.085C174.481 144.285 173.843 144.255 173.279 144C172.716 143.745 172.27 143.285 172.031 142.712L170.951 140.101C170.704 139.513 170.697 138.852 170.931 138.26C171.165 137.667 171.62 137.19 172.2 136.932L193.254 127.429C195.781 126.292 198.617 126.045 201.301 126.729L230.529 134.216L238.254 143.438L238.168 143.557C234.376 148.816 229.877 150.595 225.926 150.882Z" fill="#4B4B4B"/>
<path d="M249.796 112.347C254.872 112.347 258.986 108.211 258.986 103.109C258.986 98.0076 254.872 93.8718 249.796 93.8718C244.721 93.8718 240.606 98.0076 240.606 103.109C240.606 108.211 244.721 112.347 249.796 112.347Z" fill="#FFB8B8"/>
<path d="M240.363 147.549L225.572 136.485L235.659 129.279C235.37 128.346 234.09 123.01 241.09 119.373C243.306 118.221 244.903 117.23 245.835 116.427C247.159 115.28 248.854 114.658 250.601 114.68C251.703 114.697 252.785 114.972 253.763 115.483C254.741 115.994 255.587 116.726 256.234 117.622C256.881 118.519 257.312 119.554 257.492 120.646C257.673 121.739 257.598 122.859 257.273 123.917C255.814 128.686 253.489 135.005 250.701 138.028C247.548 141.442 244.128 144.598 240.474 147.465L240.363 147.549Z" fill="#FF9600"/>
<path d="M164.572 151.635L163.095 147.269L179.145 139.468L181.324 145.911L164.572 151.635Z" fill="#FFB8B8"/>
<path d="M160.738 154.187L155.978 140.111L156.155 140.05C156.871 139.806 157.627 139.705 158.382 139.755C159.136 139.804 159.874 140.002 160.552 140.338C161.23 140.674 161.836 141.14 162.335 141.712C162.833 142.283 163.215 142.947 163.459 143.666L166.366 152.264L160.738 154.187Z" fill="#4B4B4B"/>
<path d="M228.271 154.751C224.829 154.945 221.397 154.223 218.321 152.657L199.448 139.752L177.412 147.954C176.827 148.154 176.188 148.123 175.624 147.868C175.061 147.613 174.615 147.153 174.376 146.58L173.296 143.969C173.05 143.382 173.042 142.721 173.276 142.128C173.51 141.535 173.966 141.059 174.545 140.801L195.599 131.297C198.127 130.16 200.962 129.914 203.646 130.597L232.874 138.084L240.599 147.306L240.514 147.425C236.721 152.684 232.222 154.463 228.271 154.751Z" fill="#4B4B4B"/>
<path d="M224.029 124.188C224.144 124.361 224.245 124.543 224.331 124.733L242.647 127.723L245.503 124.217L251.33 127.859L246.874 134.559C246.514 135.1 245.989 135.509 245.378 135.725C244.766 135.941 244.102 135.952 243.484 135.756L223.352 129.369C222.75 129.896 222.004 130.226 221.211 130.316C220.419 130.406 219.618 130.251 218.915 129.872C218.212 129.493 217.641 128.908 217.277 128.194C216.913 127.481 216.773 126.673 216.877 125.878C216.981 125.083 217.323 124.339 217.858 123.745C218.393 123.15 219.096 122.733 219.872 122.55C220.649 122.366 221.462 122.425 222.205 122.717C222.948 123.01 223.584 123.523 224.029 124.188Z" fill="#FFB8B8"/>
<path d="M242.525 126.773C242.486 126.533 242.499 126.287 242.564 126.053C242.628 125.819 242.742 125.601 242.898 125.415L248.333 118.911C248.982 117.851 250.022 117.092 251.226 116.802C252.429 116.511 253.699 116.713 254.755 117.361C255.811 118.01 256.569 119.053 256.861 120.263C257.153 121.472 256.957 122.748 256.314 123.812L252.979 131.647C252.884 131.87 252.742 132.071 252.562 132.234C252.383 132.397 252.171 132.52 251.941 132.594C251.71 132.667 251.466 132.69 251.226 132.661C250.986 132.631 250.755 132.55 250.549 132.422L243.305 127.944C243.099 127.817 242.922 127.647 242.788 127.444C242.653 127.242 242.564 127.013 242.525 126.773Z" fill="#FF9600"/>
<path d="M247.339 113.283C250.01 109.829 251.491 105.596 251.558 101.223C250.301 102.162 248.879 102.853 247.365 103.259C245.76 103.689 243.994 103.775 242.482 103.083C240.354 102.108 239.095 99.6227 239.336 97.2842C239.578 94.9458 241.185 92.8568 243.279 91.8081C245.422 90.8009 247.866 90.6522 250.114 91.3923C251.303 90.3742 252.759 89.7223 254.308 89.5145C255.856 89.3068 257.432 89.5521 258.845 90.2211C262.098 91.8259 263.897 95.5422 264.209 99.171C264.521 102.8 263.593 106.408 262.674 109.931L262.57 110.329C262.284 111.426 261.451 113.53 261.451 113.53C261.451 113.53 256.619 112.572 254.699 111.957C251.916 112.968 247.339 113.283 247.339 113.283Z" fill="#2F2E41"/>
<path d="M224.302 114.168L220.365 114.454C220.266 114.461 220.168 114.429 220.093 114.364C220.018 114.298 219.972 114.206 219.964 114.106C219.957 114.007 219.99 113.909 220.055 113.833C220.119 113.758 220.212 113.711 220.311 113.704L224.248 113.418C224.297 113.414 224.347 113.42 224.393 113.436C224.44 113.451 224.483 113.476 224.521 113.508C224.558 113.54 224.588 113.58 224.61 113.624C224.633 113.668 224.646 113.716 224.649 113.766C224.653 113.815 224.647 113.864 224.631 113.911C224.616 113.958 224.591 114.002 224.559 114.039C224.527 114.076 224.487 114.107 224.443 114.129C224.399 114.151 224.351 114.164 224.302 114.168Z" fill="#3F3D56"/>
<path d="M224.437 116.043L220.5 116.33C220.451 116.334 220.401 116.327 220.355 116.312C220.308 116.296 220.265 116.272 220.227 116.239C220.19 116.207 220.16 116.168 220.137 116.124C220.115 116.079 220.102 116.031 220.099 115.982C220.095 115.933 220.101 115.883 220.117 115.836C220.132 115.789 220.157 115.746 220.189 115.708C220.221 115.671 220.261 115.64 220.305 115.618C220.349 115.596 220.397 115.583 220.446 115.58L224.383 115.293C224.482 115.286 224.58 115.319 224.655 115.384C224.73 115.449 224.776 115.542 224.784 115.641C224.791 115.741 224.758 115.839 224.693 115.914C224.628 115.99 224.536 116.036 224.437 116.043Z" fill="#3F3D56"/>
<path d="M224.572 117.919L220.635 118.205C220.536 118.212 220.438 118.18 220.363 118.114C220.288 118.049 220.242 117.957 220.235 117.857C220.228 117.758 220.26 117.66 220.325 117.585C220.39 117.509 220.482 117.463 220.581 117.455L224.518 117.169C224.617 117.162 224.715 117.194 224.79 117.26C224.865 117.325 224.911 117.417 224.919 117.517C224.926 117.616 224.893 117.715 224.828 117.79C224.763 117.865 224.671 117.912 224.572 117.919Z" fill="#3F3D56"/>
<path d="M338.626 192H0.374172C0.274936 192 0.179763 191.96 0.109592 191.89C0.0394213 191.819 0 191.724 0 191.624C0 191.524 0.0394213 191.428 0.109592 191.358C0.179763 191.287 0.274936 191.248 0.374172 191.248H338.626C338.725 191.248 338.82 191.287 338.89 191.358C338.961 191.428 339 191.524 339 191.624C339 191.724 338.961 191.819 338.89 191.89C338.82 191.96 338.725 192 338.626 192Z" fill="#4B4B4B"/>
<path d="M179.894 66.758H142.103C141.21 66.757 140.354 66.4001 139.723 65.7655C139.092 65.1309 138.736 64.2705 138.735 63.3731V30.6523C138.736 29.7548 139.092 28.8945 139.723 28.2599C140.354 27.6253 141.21 27.2684 142.103 27.2673H179.894C180.787 27.2684 181.643 27.6253 182.274 28.2599C182.906 28.8945 183.261 29.7548 183.262 30.6523V63.3731C183.261 64.2705 182.906 65.1309 182.274 65.7655C181.643 66.4 180.787 66.757 179.894 66.758ZM142.103 28.0195C141.409 28.0203 140.743 28.2979 140.252 28.7915C139.761 29.2851 139.485 29.9543 139.484 30.6523V63.3731C139.485 64.0711 139.761 64.7403 140.252 65.2339C140.743 65.7274 141.409 66.005 142.103 66.0058H179.894C180.589 66.005 181.255 65.7274 181.746 65.2339C182.237 64.7403 182.513 64.0711 182.514 63.3731V30.6523C182.513 29.9543 182.237 29.2851 181.746 28.7915C181.255 28.2979 180.589 28.0203 179.894 28.0195H142.103Z" fill="#F2F2F2"/>
<path d="M174.369 61.6807H147.628C146.785 61.6797 145.977 61.3426 145.38 60.7433C144.784 60.144 144.449 59.3314 144.448 58.4838V35.5416C144.449 34.694 144.784 33.8814 145.38 33.2821C145.977 32.6828 146.785 32.3457 147.628 32.3447H174.369C175.212 32.3457 176.021 32.6828 176.617 33.2821C177.213 33.8814 177.548 34.694 177.549 35.5416V58.4838C177.548 59.3314 177.213 60.144 176.617 60.7433C176.021 61.3426 175.212 61.6797 174.369 61.6807Z" fill="#E6E6E6"/>
<path d="M161.186 22.3781C162.219 22.3781 163.057 21.5362 163.057 20.4976C163.057 19.459 162.219 18.6171 161.186 18.6171C160.152 18.6171 159.315 19.459 159.315 20.4976C159.315 21.5362 160.152 22.3781 161.186 22.3781Z" fill="#F2F2F2"/>
<path d="M165.119 27.8368L161.187 21.2313L157.277 27.8357L156.633 27.4513L161.185 19.7638L165.761 27.4502L165.119 27.8368Z" fill="#F2F2F2"/>
<path d="M165.489 44.38C165.488 43.8107 165.426 43.2433 165.303 42.6875H159.689C159.292 42.6875 158.911 42.846 158.631 43.1281C158.35 43.4103 158.192 43.7929 158.192 44.1919V52.2496C160.173 52.1083 162.027 51.2179 163.381 49.7577C164.735 48.2975 165.488 46.376 165.489 44.38Z" fill="#FF9600"/>
<path d="M157.631 52.6543C156.078 52.6549 154.557 52.2141 153.243 51.3828C151.929 50.5515 150.876 49.3636 150.205 47.9563C149.534 46.549 149.272 44.9796 149.451 43.4293C149.629 41.8791 150.24 40.4111 151.213 39.1949C152.186 37.9788 153.481 37.064 154.95 36.5561C156.418 36.0483 157.999 35.9682 159.51 36.325C161.022 36.6818 162.402 37.461 163.492 38.5726C164.581 39.6843 165.336 41.083 165.669 42.6074L165.768 43.0637H159.689C159.391 43.0641 159.106 43.183 158.896 43.3946C158.685 43.6061 158.567 43.8929 158.567 44.192V52.6002L158.154 52.6295C157.981 52.6422 157.807 52.6543 157.631 52.6543ZM157.631 36.858C155.646 36.858 153.743 37.6505 152.339 39.0612C150.936 40.4719 150.148 42.3851 150.148 44.3801C150.148 46.375 150.936 48.2883 152.339 49.699C153.743 51.1096 155.646 51.9021 157.631 51.9021C157.694 51.9021 157.756 51.9003 157.818 51.8973V44.192C157.819 43.6935 158.016 43.2155 158.367 42.8629C158.717 42.5104 159.193 42.3121 159.689 42.3115H164.823C164.37 40.7444 163.425 39.3666 162.129 38.3837C160.832 37.4009 159.255 36.8657 157.631 36.858Z" fill="white"/>
<path d="M168.669 55.0989H159.689C159.193 55.0983 158.717 54.9 158.367 54.5474C158.016 54.1949 157.819 53.7169 157.818 53.2184V51.8992L158.166 51.8745C159.237 51.8001 160.28 51.4943 161.223 50.9779C162.166 50.4614 162.986 49.7465 163.629 48.882C164.272 48.0175 164.722 47.0238 164.948 45.9686C165.173 44.9134 165.17 43.8217 164.938 42.7679L164.838 42.3114H168.669C169.165 42.312 169.641 42.5103 169.991 42.8628C170.342 43.2154 170.539 43.6933 170.54 44.1919V53.2184C170.539 53.7169 170.342 54.1949 169.991 54.5474C169.641 54.9 169.165 55.0983 168.669 55.0989ZM158.567 52.5925V53.2184C158.567 53.5175 158.685 53.8043 158.896 54.0158C159.106 54.2273 159.391 54.3463 159.689 54.3467H168.669C168.967 54.3463 169.252 54.2273 169.463 54.0158C169.673 53.8043 169.791 53.5175 169.792 53.2184V44.1919C169.791 43.8928 169.673 43.606 169.463 43.3945C169.252 43.1829 168.967 43.0639 168.669 43.0636H165.755C165.826 43.4988 165.862 43.939 165.863 44.38C165.856 46.4088 165.11 48.3648 163.765 49.8781C162.421 51.3914 160.571 52.357 158.567 52.5925Z" fill="white"/>
</g>
<defs>
<clipPath id="clip0_22_79">
<rect width="339" height="192" fill="white"/>
</clipPath>
</defs>
</svg>
