<svg width="182" height="183" viewBox="0 0 182 183" fill="none" xmlns="http://www.w3.org/2000/svg">
<g clip-path="url(#clip0_24_897)">
<path d="M40.8197 30.5612L39.4321 37.793L46.3498 39.7291L45.4903 32.0083L40.8197 30.5612Z" fill="#A0616A"/>
<path d="M0 180.261C0 180.489 0.183859 180.671 0.412814 180.671H181.587C181.816 180.671 182 180.489 182 180.261C182 180.034 181.816 179.852 181.587 179.852H0.412814C0.183859 179.852 0 180.034 0 180.261Z" fill="#3F3D56"/>
<path d="M123.504 82.0676H52.1606C44.0703 82.0676 37.5117 88.5787 37.5117 96.6106V165.29C37.5117 173.322 44.0702 179.833 52.1606 179.833H123.504C131.594 179.833 138.153 173.322 138.153 165.29V96.6106C138.153 88.5787 131.594 82.0676 123.504 82.0676Z" fill="white"/>
<path d="M123.504 180.177H52.1606C43.892 180.177 37.1648 173.499 37.1648 165.29V96.6106C37.1648 88.4018 43.892 81.7233 52.1606 81.7233H123.504C131.773 81.7233 138.5 88.4018 138.5 96.6106V165.29C138.5 173.499 131.773 180.177 123.504 180.177ZM52.1606 82.412C44.2744 82.412 37.8586 88.7814 37.8586 96.6106V165.29C37.8586 173.119 44.2744 179.489 52.1606 179.489H123.504C131.39 179.489 137.806 173.119 137.806 165.29V96.6106C137.806 88.7814 131.39 82.412 123.504 82.412L52.1606 82.412Z" fill="#3F3D56"/>
<path d="M128.672 111.843H99.9957C98.7794 111.843 97.7898 110.86 97.7898 109.653C97.7898 108.445 98.7794 107.463 99.9957 107.463H128.672C129.888 107.463 130.878 108.445 130.878 109.653C130.878 110.86 129.888 111.843 128.672 111.843Z" fill="#FF9600"/>
<path d="M101.77 129.064H73.8952C73.1924 129.064 72.6206 128.496 72.6206 127.799C72.6206 127.101 73.1924 126.534 73.8952 126.534H101.77C102.473 126.534 103.044 127.101 103.044 127.799C103.044 128.496 102.473 129.064 101.77 129.064Z" fill="#FF9600"/>
<path d="M62.3717 86.7711H46.4575C46.398 86.7711 46.3499 86.8189 46.3499 86.8779V88.7172C46.3499 88.7762 46.398 88.824 46.4575 88.824H62.3717C62.4311 88.824 62.4793 88.7762 62.4793 88.7172V86.8779C62.4793 86.8189 62.4311 86.7711 62.3717 86.7711Z" fill="#FF9600"/>
<path d="M115.976 88.824C116.89 88.824 117.63 88.0887 117.63 87.1816C117.63 86.2746 116.89 85.5393 115.976 85.5393C115.062 85.5393 114.322 86.2746 114.322 87.1816C114.322 88.0887 115.062 88.824 115.976 88.824Z" fill="#3F3D56"/>
<path d="M120.525 88.824C121.439 88.824 122.18 88.0887 122.18 87.1816C122.18 86.2746 121.439 85.5393 120.525 85.5393C119.612 85.5393 118.871 86.2746 118.871 87.1816C118.871 88.0887 119.612 88.824 120.525 88.824Z" fill="#3F3D56"/>
<path d="M125.075 88.824C125.988 88.824 126.729 88.0887 126.729 87.1816C126.729 86.2746 125.988 85.5393 125.075 85.5393C124.161 85.5393 123.42 86.2746 123.42 87.1816C123.42 88.0887 124.161 88.824 125.075 88.824Z" fill="#3F3D56"/>
<path d="M51.9871 135.837C51.9871 136.064 52.1709 136.247 52.3999 136.247H123.265C123.494 136.247 123.678 136.064 123.678 135.837C123.678 135.61 123.494 135.427 123.265 135.427H52.3999C52.1709 135.427 51.9871 135.61 51.9871 135.837Z" fill="#3F3D56"/>
<path d="M73.5998 34.7533C75.1084 33.5157 76.9745 33.2854 77.7677 34.2387C78.5609 35.192 77.9807 36.9677 76.4714 38.2055C75.8753 38.7081 75.1666 39.0618 74.4046 39.2368L67.9457 44.4003L65.5696 41.3396L72.1892 36.5742C72.5062 35.8641 72.9898 35.2397 73.5998 34.7533Z" fill="#A0616A"/>
<path d="M36.2679 46.4035C36.2646 46.1752 36.2667 44.1833 37.7521 42.9243C39.4584 41.4781 41.8661 42.0635 42.7106 42.2688C44.6613 42.7431 44.8213 43.5738 46.6533 44.4274C50.0807 46.0245 45.7863 45.207 47.8257 44.6949C48.5316 44.5177 58.6874 43.8184 61.2154 42.2738C66.1319 39.2696 69.4819 37.4479 69.4819 37.4479L71.6719 41.7961C71.6719 41.7961 68.5052 46.1675 64.0484 49.4058C59.4767 52.7276 57.1908 54.3886 53.7169 55.0303C53.4178 55.0856 46.0604 56.3327 40.1346 51.9375C38.783 50.935 36.3064 49.0982 36.2679 46.4035Z" fill="#FF9600"/>
<path d="M43.061 35.345C47.2744 35.345 50.69 31.9541 50.69 27.7712C50.69 23.5884 47.2744 20.1975 43.061 20.1975C38.8477 20.1975 35.4321 23.5884 35.4321 27.7712C35.4321 31.9541 38.8477 35.345 43.061 35.345Z" fill="#A0616A"/>
<path d="M102.808 78.6545L94.9512 70.6704L90.8955 74.8704L96.7491 82.5257L102.555 83.185L102.808 78.6545Z" fill="#A0616A"/>
<path d="M57.9458 63.6825C58.4053 63.7204 59.8657 64.0109 61.2615 63.2485C62.2141 62.7282 62.7026 61.9545 62.8676 61.7085C64.9147 58.6562 72.772 53.8965 79.8236 53.6036C81.4205 53.5373 82.4717 53.721 83.427 54.2154C84.7818 54.9165 85.3226 55.9207 87.0417 58.2732C87.982 59.56 89.0225 60.7723 89.9742 62.0508C95.5459 69.5362 97.6581 70.1239 97.4422 72.5236C97.2027 75.1862 94.3102 77.7123 92.3877 77.4207C91.6004 77.3013 91.2955 76.7578 90.2436 75.6576C87.1594 72.4316 85.8834 73.0276 83.6876 70.5566C81.1239 67.6718 81.4595 65.2798 80.122 65.1874C78.8816 65.1017 78.3545 67.1423 75.7065 69.8531C74.4948 71.0934 73.6319 71.6625 71.0032 73.4729C60.7664 80.5233 60.603 81.0188 58.5371 81.581C57.6333 81.8271 51.218 83.5731 48.9327 80.7945C45.3565 76.4461 53.805 63.341 57.9458 63.6825Z" fill="#2F2E41"/>
<path d="M100.406 80.4588C100.984 80.2012 101.659 79.9 101.877 79.2074C102.024 78.7387 101.939 78.1608 101.635 77.7615C101.284 77.3008 100.765 77.24 100.786 77.1585C100.818 77.0344 102.046 77.0829 103.394 77.5559C103.648 77.6452 104.8 78.0632 106.266 79.1991C107.44 80.1093 107.282 80.2918 108.019 80.8166C110.279 82.4275 112.399 81.1579 113.622 82.6686C114.094 83.2517 114.296 84.0795 114.097 84.7488C113.698 86.093 111.758 86.5556 110.698 86.7944C108.144 87.3695 106.211 86.9 104.193 86.5624C97.3294 85.4142 93.473 86.4599 92.9569 84.8813C92.8592 84.5825 93.0179 84.608 93.5471 82.4155C94.0694 80.2515 94.0523 79.6572 94.4971 79.4839C95.1668 79.2231 95.6164 80.4096 97.3033 80.8157C98.7981 81.1755 100.032 80.6257 100.406 80.4588Z" fill="#2F2E41"/>
<path d="M88.8398 104.774L86.8548 93.7872L81.1233 95.0016L81.6367 104.599L86.0682 108.381L88.8398 104.774Z" fill="#A0616A"/>
<path d="M60.1871 67.3755C60.5459 67.663 61.59 68.7175 63.1762 68.8647C64.2587 68.9653 65.1006 68.5975 65.3763 68.4859C68.7966 67.1015 77.9903 67.5433 83.9909 71.232C85.3498 72.0674 86.1157 72.8054 86.6265 73.7471C87.351 75.0824 87.2305 76.2148 87.3223 79.1197C87.3726 80.7087 87.5478 82.2919 87.6121 83.8804C87.9884 93.1803 89.4037 94.844 87.8677 96.7093C86.1635 98.779 82.3413 99.2567 80.9154 97.9437C80.3315 97.406 80.3867 96.7863 80.1386 95.2895C79.4113 90.9008 78.0184 90.6826 77.599 87.4139C77.1095 83.5976 78.7402 81.8054 77.6857 80.9833C76.7078 80.221 75.1174 81.6156 71.393 82.3824C69.6888 82.7333 68.653 82.7231 65.4538 82.7557C52.9955 82.8828 52.58 83.2017 50.5525 82.5153C49.6655 82.215 43.3696 80.0834 43.0503 76.5102C42.5507 70.9185 56.9541 64.7845 60.1871 67.3755Z" fill="#2F2E41"/>
<path d="M85.8318 104.928C86.4556 105.037 87.1851 105.164 87.7567 104.712C88.1435 104.406 88.4003 103.881 88.3745 103.381C88.3449 102.804 87.9496 102.464 88.0131 102.409C88.1098 102.324 89.0983 103.048 89.946 104.191C90.1059 104.407 90.8229 105.395 91.3932 107.152C91.8501 108.56 91.6161 108.623 91.9286 109.468C92.8878 112.061 95.3602 112.192 95.5178 114.124C95.5786 114.869 95.2769 115.667 94.7339 116.11C93.6435 117 91.7766 116.301 90.7642 115.907C88.3258 114.96 86.9921 113.494 85.5131 112.089C80.4832 107.313 76.7007 106.028 77.1665 104.434C77.2547 104.133 77.3716 104.242 79.0496 102.723C80.7059 101.224 81.0278 100.722 81.4939 100.827C82.1956 100.984 81.8965 102.217 83.0626 103.493C84.0959 104.624 85.4276 104.857 85.8318 104.928Z" fill="#2F2E41"/>
<path d="M44.1013 29.2192C44.3983 28.1645 44.0252 27.7801 44.4054 27.3067C44.4054 27.3067 44.5584 27.1162 45.9263 26.6021C45.5227 24.2774 45.8249 23.8843 45.8249 23.8843C46.1732 23.4312 46.8708 23.3217 47.3458 23.381C48.3503 23.5063 48.5281 24.4078 49.1708 24.3876C50.0587 24.3596 51.1237 22.5952 50.7931 21.0659C50.5235 19.8184 49.3609 18.8919 49.0695 19.0527C48.7805 19.2121 47.7403 18.5092 47.3458 18.6501C47.0764 18.7462 45.8083 18.6183 45.5207 18.7507C45.2067 18.8953 44.3075 19.7958 44.2215 19.6824C43.624 18.8939 43.6368 18.6187 43.2901 18.4487C42.6759 18.1476 42.0081 18.7042 40.8567 19.254C38.4876 20.3853 37.7939 19.7105 36.6997 20.6632C36.1469 21.1445 35.8505 22.0643 35.2802 23.8843C34.4826 26.4295 34.0839 27.7021 34.469 28.9172C34.8618 30.1564 35.4403 29.8867 36.2941 31.635C37.2445 33.5811 36.9169 34.7123 37.815 35.158C38.509 35.5025 39.6244 35.2833 40.0456 34.6547C40.7666 33.5786 38.903 32.123 39.5386 30.4271C39.9288 29.3861 41.1325 28.5967 41.8706 28.8165C42.7053 29.0651 42.7667 30.5507 43.2901 30.5277C43.7383 30.5081 44.0495 29.403 44.1013 29.2192Z" fill="#2F2E41"/>
<path d="M38.3219 36.4666C39.8831 34.7288 46.242 36.5275 46.8388 39.285C47.0843 40.4193 46.178 40.8982 46.4333 42.2041C46.8065 44.1143 48.9201 43.984 50.4889 45.9285C52.7162 48.689 50.4217 51.3875 52.9223 55.9943C53.4567 56.9787 53.9071 57.8084 54.8488 58.6114C57.0097 60.4541 59.0208 59.8221 60.1212 61.5305C60.944 62.8081 60.6059 64.3827 60.5267 64.7516C60.202 66.2641 59.3218 66.6327 58.7017 67.872C57.6698 69.934 58.8381 71.4479 58.9044 73.9115C58.9874 76.994 57.3375 81.2668 54.0376 82.6688C50.3305 84.2438 45.8593 81.6352 43.6957 79.0451C42.4046 77.4995 42.0299 76.0739 41.4651 74.3141C38.9408 66.4495 37.5147 67.1608 35.5843 60.9266C33.3776 53.7997 32.9437 45.4502 35.5843 42.8081C35.9343 42.4579 36.8975 41.6484 37.5108 40.191C38.336 38.2297 37.6231 37.2445 38.3219 36.4666Z" fill="#FF9600"/>
<path d="M61.3895 76.9192C62.5998 78.4459 62.7875 80.3035 61.8086 81.068C60.8298 81.8326 59.0555 81.2146 57.8449 79.6872C57.3528 79.0836 57.0136 78.3719 56.8555 77.6115L51.8093 71.0783L54.4167 69.1039L59.5893 75.476C60.2968 75.8074 60.9141 76.3023 61.3895 76.9192Z" fill="#A0616A"/>
<path d="M42.9089 43.0893C43.1334 43.0395 45.098 42.6352 46.6425 43.8219C48.4168 45.1851 48.3308 47.6445 48.3007 48.5071C48.2311 50.4998 47.4445 50.8248 46.9766 52.7794C46.1011 56.4363 47.7683 59.8347 48.6895 61.7123C49.0083 62.3622 50.0326 64.3509 52.0716 66.4926C56.0372 70.6579 59.5756 72.8497 59.5756 72.8497L55.7744 76.2041C55.7744 76.2041 49.7196 74.3719 45.6168 70.7012C41.4084 66.9358 34.9365 53.6136 33.5948 50.3684C33.4793 50.0889 35.1159 54.6325 38.2408 47.9765C38.9536 46.4583 40.2596 43.6766 42.9089 43.0893Z" fill="#FF9600"/>
<path d="M95.0275 145.218C92.6114 145.586 90.844 147.122 91.08 148.648C91.3159 150.175 93.4655 151.114 95.8824 150.746C96.8499 150.612 97.771 150.25 98.5687 149.69L108.786 148.004L108.104 143.994L97.9098 145.426C96.9796 145.13 95.9912 145.058 95.0275 145.218Z" fill="#FFB6B6"/>
<path d="M139.056 132.72L135.094 141.066L115.178 147.722L98.6512 148.598L98.2373 144.657L116.148 140.939L134.527 132.317L139.056 132.72Z" fill="#FF9600"/>
<path d="M102.323 164.41L98.7658 173.342L94.1628 170.226L96.8828 160.879L102.323 164.41Z" fill="#FFB6B6"/>
<path d="M87.4677 161.087L78.0525 170.018L81.8186 173.965L91.4429 166.487L87.4677 161.087Z" fill="#FFB6B6"/>
<path d="M140.82 132.007L140.716 131.28L138.309 126.607L130.359 128.684L131.823 135.123L140.82 132.007Z" fill="#FFB6B6"/>
<path d="M137.473 163.164L137.717 166.284C137.717 166.284 138.728 179.366 130.568 180.404C122.408 181.443 118.852 182.481 114.039 174.38L106.507 161.087L102.108 166.284L96.2551 161.71C96.2551 161.71 100.44 145.508 103.787 144.885C104.206 144.807 104.624 144.768 105.036 144.76C107.807 144.703 110.42 146.048 112.078 148.254L121.571 160.879L125.024 159.321L137.473 163.164Z" fill="#2F2E41"/>
<path d="M92.2798 172.926L94.1628 169.395L99.6027 173.134C99.6027 173.134 100.858 177.704 98.975 178.327C97.0919 178.95 91.8613 178.119 91.8613 178.119C91.8613 178.119 82.2369 180.196 82.0277 178.327C81.8185 176.458 86.4214 176.042 86.4214 176.042L92.2798 172.926Z" fill="#2F2E41"/>
<path d="M112.784 170.434L98.2426 161.338L90.8151 167.941L85.7937 162.125C85.7937 162.125 94.9996 148.624 97.7196 148.001C100.44 147.378 104.833 146.962 104.833 146.962L118.224 159.217L112.784 170.434Z" fill="#2F2E41"/>
<path d="M77.8432 169.188L82.6554 174.38L82.0208 174.919C82.0208 174.919 80.7724 180.317 77.8432 178.491C74.9141 176.665 74.7048 176.25 74.7048 176.25C74.7048 176.25 66.3358 178.119 65.4989 174.796C64.662 171.472 66.9635 172.096 66.9635 172.096L69.0533 173.342L77.8432 169.188Z" fill="#2F2E41"/>
<path d="M132.87 130.969C136.567 130.969 139.565 127.993 139.565 124.322C139.565 120.651 136.567 117.675 132.87 117.675C129.172 117.675 126.175 120.651 126.175 124.322C126.175 127.993 129.172 130.969 132.87 130.969Z" fill="#FFB6B6"/>
<path d="M131.3 133.773L140.925 130.865C140.925 130.865 144.691 139.589 144.063 143.535C143.436 147.482 137.717 166.284 137.717 166.284L125.024 159.321C125.024 159.321 124.814 155.167 124.187 153.298C123.559 151.428 121.571 145.716 125.965 140.939C130.359 136.161 131.3 133.773 131.3 133.773Z" fill="#FF9600"/>
<path d="M110.118 177.388C108.552 179.251 108.25 181.564 109.445 182.553C110.639 183.543 112.876 182.834 114.443 180.971C115.079 180.235 115.528 179.358 115.753 178.414L122.29 170.438L119.106 167.88L112.418 175.651C111.522 176.039 110.734 176.635 110.118 177.388Z" fill="#FFB6B6"/>
<path d="M138.683 137.963L140.958 146.909L129.824 164.602L118.458 175.943L114.774 172.909L126.237 158.749L134.925 140.505L138.683 137.963Z" fill="#FF9600"/>
<path d="M126.697 123.179C128.414 123.175 128.512 123.187 128.79 123.179C130.919 123.124 131.476 122.292 132.556 122.348C134.482 122.45 131.94 132.039 130.882 136.473C129.845 140.821 133.35 144.717 133.602 144.989C137.16 148.831 143.409 149.533 144.482 147.897C145.35 146.573 142.273 144.56 143.017 141.666C143.744 138.837 147.1 139.138 148.038 136.473C149.021 133.682 145.719 132.274 143.645 125.464C142.453 121.553 142.664 120.824 141.552 118.402C138.581 111.927 124.016 114.684 125.651 120.687C125.968 121.848 125.126 123.183 126.697 123.179Z" fill="#2F2E41"/>
<path d="M148.077 44.2732H77.7111C75.7212 44.2732 74.1023 42.6659 74.1023 40.6905V3.58271C74.1023 1.60731 75.7212 0 77.7111 0H148.077C150.067 0 151.686 1.60731 151.686 3.58271V40.6905C151.686 42.6659 150.067 44.2732 148.077 44.2732Z" fill="white"/>
<path d="M148.077 44.2732H77.7111C75.7212 44.2732 74.1023 42.6659 74.1023 40.6905V3.58271C74.1023 1.60731 75.7212 0 77.7111 0H148.077C150.067 0 151.686 1.60731 151.686 3.58271V40.6905C151.686 42.6659 150.067 44.2732 148.077 44.2732ZM77.7111 0.598287C76.0535 0.598287 74.7049 1.93713 74.7049 3.58271V40.6905C74.7049 42.3361 76.0535 43.6749 77.7111 43.6749H148.077C149.734 43.6749 151.083 42.3361 151.083 40.6905V3.58271C151.083 1.93713 149.734 0.598287 148.077 0.598287H77.7111Z" fill="#3F3D56"/>
<path d="M142.646 4.48712C143.145 4.48712 143.55 4.08533 143.55 3.58969C143.55 3.09405 143.145 2.69226 142.646 2.69226C142.147 2.69226 141.742 3.09405 141.742 3.58969C141.742 4.08533 142.147 4.48712 142.646 4.48712Z" fill="#3F3D56"/>
<path d="M145.057 4.48712C145.556 4.48712 145.961 4.08533 145.961 3.58969C145.961 3.09405 145.556 2.69226 145.057 2.69226C144.557 2.69226 144.153 3.09405 144.153 3.58969C144.153 4.08533 144.557 4.48712 145.057 4.48712Z" fill="#3F3D56"/>
<path d="M147.467 4.48712C147.966 4.48712 148.371 4.08533 148.371 3.58969C148.371 3.09405 147.966 2.69226 147.467 2.69226C146.968 2.69226 146.563 3.09405 146.563 3.58969C146.563 4.08533 146.968 4.48712 147.467 4.48712Z" fill="#3F3D56"/>
<path d="M79.2247 18.0981C78.9754 18.0981 78.7727 18.2994 78.7727 18.5469C78.7727 18.6675 78.8196 18.7791 78.9048 18.8615C78.9907 18.9488 79.1033 18.9956 79.2247 18.9956H146.864C147.114 18.9956 147.316 18.7943 147.316 18.5469C147.316 18.4262 147.269 18.3146 147.184 18.2322C147.098 18.1449 146.986 18.0981 146.864 18.0981H79.2247Z" fill="#E6E6E6"/>
<path d="M138.427 17.9486V19.1452H79.2247C79.059 19.1452 78.9083 19.0794 78.7999 18.9687C78.6883 18.861 78.6221 18.7114 78.6221 18.5469C78.6221 18.2178 78.8933 17.9486 79.2247 17.9486H138.427Z" fill="#FF9600"/>
<path d="M146.111 15.705H140.085C139.42 15.705 138.879 15.1684 138.879 14.5085C138.879 13.8485 139.42 13.3119 140.085 13.3119H146.111C146.776 13.3119 147.316 13.8485 147.316 14.5085C147.316 15.1684 146.776 15.705 146.111 15.705Z" fill="#E6E6E6"/>
<path d="M106.638 9.42305H79.6767C79.0121 9.42305 78.4714 8.88641 78.4714 8.22648C78.4714 7.56655 79.0121 7.02991 79.6767 7.02991H106.638C107.302 7.02991 107.843 7.56655 107.843 8.22648C107.843 8.88641 107.302 9.42305 106.638 9.42305Z" fill="#E6E6E6"/>
<path d="M79.2247 31.5596C78.9754 31.5596 78.7727 31.7609 78.7727 32.0083C78.7727 32.1289 78.8196 32.2405 78.9048 32.3229C78.9907 32.4103 79.1033 32.457 79.2247 32.457H146.864C147.114 32.457 147.316 32.2557 147.316 32.0083C147.316 31.8876 147.269 31.776 147.184 31.6937C147.098 31.6063 146.986 31.5596 146.864 31.5596H79.2247Z" fill="#E6E6E6"/>
<path d="M115.226 31.41V32.6066H79.2247C79.059 32.6066 78.9083 32.5408 78.7999 32.4301C78.6883 32.3224 78.6221 32.1728 78.6221 32.0083C78.6221 31.6793 78.8933 31.41 79.2247 31.41H115.226Z" fill="#FF9600"/>
<path d="M146.111 29.1665H140.085C139.42 29.1665 138.879 28.6298 138.879 27.9699C138.879 27.31 139.42 26.7733 140.085 26.7733H146.111C146.776 26.7733 147.316 27.31 147.316 27.9699C147.316 28.6298 146.776 29.1665 146.111 29.1665Z" fill="#E6E6E6"/>
</g>
<defs>
<clipPath id="clip0_24_897">
<rect width="182" height="183" fill="white"/>
</clipPath>
</defs>
</svg>
