<svg width="1080" height="150" viewBox="0 0 1080 150" fill="none" xmlns="http://www.w3.org/2000/svg">
<g clip-path="url(#clip0_66_36)">
<g clip-path="url(#clip1_66_36)">
<path d="M463.719 110.414C471.049 110.414 476.991 104.452 476.991 97.0981C476.991 89.744 471.049 83.7822 463.719 83.7822C456.389 83.7822 450.447 89.744 450.447 97.0981C450.447 104.452 456.389 110.414 463.719 110.414Z" fill="#E4E4E4"/>
<path opacity="0.2" d="M453.919 88.2041C452.681 91.1095 452.513 94.362 453.445 97.3802C454.378 100.398 456.349 102.986 459.007 104.68C461.666 106.374 464.838 107.065 467.957 106.628C471.076 106.192 473.939 104.657 476.034 102.297C475.278 104.072 474.146 105.661 472.717 106.954C471.288 108.247 469.596 109.212 467.758 109.783C465.92 110.355 463.981 110.518 462.073 110.263C460.166 110.008 458.337 109.339 456.713 108.304C455.089 107.269 453.708 105.892 452.667 104.269C451.626 102.645 450.949 100.814 450.684 98.9023C450.418 96.9904 450.57 95.0433 451.128 93.196C451.687 91.3488 452.639 89.6454 453.919 88.2041Z" fill="black"/>
<path d="M463.755 97.0981H463.792L464.448 134.851H463.062L463.755 97.0981Z" fill="#4B4B4B"/>
<path d="M436.866 85.5817C451.644 85.5817 463.624 73.5618 463.624 58.7345C463.624 43.9071 451.644 31.8872 436.866 31.8872C422.087 31.8872 410.107 43.9071 410.107 58.7345C410.107 73.5618 422.087 85.5817 436.866 85.5817Z" fill="#E4E4E4"/>
<path opacity="0.2" d="M417.108 40.8027C414.612 46.6606 414.274 53.2181 416.153 59.3034C418.032 65.3887 422.007 70.6052 427.367 74.0209C432.727 77.4366 439.122 78.8288 445.411 77.9488C451.7 77.0688 457.472 73.9738 461.696 69.2171C460.171 72.796 457.889 75.9995 455.008 78.6058C452.127 81.212 448.715 83.1585 445.01 84.3106C441.304 85.4626 437.393 85.7926 433.548 85.2777C429.703 84.7627 426.015 83.4152 422.741 81.3284C419.466 79.2416 416.683 76.4654 414.584 73.1922C412.485 69.9191 411.12 66.2272 410.584 62.3723C410.048 58.5175 410.354 54.5918 411.481 50.8674C412.607 47.1429 414.527 43.7087 417.108 40.8027Z" fill="black"/>
<path d="M436.939 58.7344H437.013L438.336 134.851H435.543L436.939 58.7344Z" fill="#4B4B4B"/>
<path d="M613.286 95.4536H490.636V131.933H613.286V95.4536Z" fill="#F0F0F0"/>
<path d="M559.112 102.993H544.811V131.933H559.112V102.993Z" fill="#CACACA"/>
<path d="M606.136 52.4082H497.787V85.969H606.136V52.4082Z" fill="#F0F0F0"/>
<path d="M617.12 54.4754H486.802C486.585 54.4754 486.372 54.4102 486.192 54.288C486.011 54.1658 485.872 53.9923 485.79 53.7899C485.709 53.5874 485.69 53.3651 485.736 53.1517C485.781 52.9383 485.89 52.7434 486.046 52.5921L521.662 18.2443V3.28312C521.663 2.99298 521.778 2.71481 521.982 2.50964C522.187 2.30448 522.464 2.18908 522.753 2.18875H529.783C530.072 2.18907 530.349 2.30447 530.553 2.50963C530.758 2.7148 530.873 2.99297 530.873 3.28312V9.36154L533.563 6.76716C537.966 2.52169 543.806 0.105215 549.911 0.0033557C556.017 -0.0985038 561.934 2.1218 566.474 6.21807L617.85 52.5672C618.014 52.7152 618.129 52.9097 618.181 53.1249C618.233 53.3402 618.218 53.5661 618.139 53.7728C618.06 53.9795 617.92 54.1573 617.738 54.2828C617.557 54.4082 617.341 54.4754 617.12 54.4754Z" fill="#CACACA"/>
<path d="M526.389 60.9199C527.296 60.9199 528.195 61.0992 529.033 61.4475C529.871 61.7958 530.632 62.3064 531.274 62.95C531.915 63.5936 532.424 64.3576 532.771 65.1986C533.119 66.0395 533.297 66.9407 533.297 67.8509V77.2139H519.481V67.8509C519.481 66.9407 519.66 66.0395 520.007 65.1986C520.354 64.3576 520.863 63.5936 521.504 62.95C522.146 62.3064 522.907 61.7958 523.745 61.4475C524.584 61.0992 525.482 60.9199 526.389 60.9199Z" fill="white"/>
<path d="M551.961 61.0415C553.793 61.0415 555.551 61.7717 556.846 63.0716C558.142 64.3714 558.869 66.1343 558.869 67.9725V77.3355H545.053V67.9725C545.053 66.1343 545.781 64.3714 547.077 63.0716C548.372 61.7717 550.129 61.0415 551.961 61.0415Z" fill="white"/>
<path d="M577.534 61.1631C579.366 61.1631 581.123 61.8933 582.418 63.1931C583.714 64.493 584.442 66.2559 584.442 68.0941V77.4571H570.625V68.0941C570.625 66.2559 571.353 64.493 572.649 63.1931C573.944 61.8933 575.701 61.1631 577.534 61.1631Z" fill="white"/>
<path d="M587.714 102.628C589.546 102.628 591.303 103.358 592.599 104.658C593.894 105.958 594.622 107.721 594.622 109.559V118.922H580.806V109.559C580.806 107.721 581.534 105.958 582.829 104.658C584.125 103.358 585.882 102.628 587.714 102.628Z" fill="white"/>
<path d="M519.36 102.628C521.192 102.628 522.949 103.358 524.244 104.658C525.54 105.958 526.268 107.721 526.268 109.559V118.922H512.452V109.559C512.452 108.649 512.63 107.747 512.977 106.907C513.325 106.066 513.833 105.302 514.475 104.658C515.116 104.014 515.878 103.504 516.716 103.156C517.554 102.807 518.452 102.628 519.36 102.628Z" fill="white"/>
<path d="M631.205 96.0234L608.197 85.8093C608.074 85.7544 607.94 85.7261 607.805 85.7261H498.154C498.029 85.7261 497.905 85.7504 497.789 85.7977L472.745 96.0118C472.536 96.0968 472.364 96.2517 472.257 96.4502C472.15 96.6486 472.115 96.8782 472.158 97.0996C472.201 97.321 472.32 97.5205 472.494 97.6639C472.667 97.8073 472.885 97.8858 473.11 97.8858H479.608V131.447H478.88V134.851H625.042V131.447H623.83V97.8857H630.813C631.035 97.8857 631.251 97.8091 631.423 97.6686C631.596 97.5281 631.715 97.3324 631.761 97.1141C631.807 96.8959 631.777 96.6684 631.676 96.4698C631.575 96.2713 631.408 96.1137 631.205 96.0234ZM621.891 131.447H481.547V97.8857H621.891V131.447Z" fill="#CACACA"/>
<path d="M534.994 75.8765H517.299V78.7948H534.994V75.8765Z" fill="#CACACA"/>
<path d="M560.93 75.8765H543.235V78.7948H560.93V75.8765Z" fill="#CACACA"/>
<path d="M586.866 75.8765H569.171V78.7948H586.866V75.8765Z" fill="#CACACA"/>
<path d="M596.561 117.949H578.867V120.868H596.561V117.949Z" fill="#CACACA"/>
<path d="M527.965 117.949H510.27V120.868H527.965V117.949Z" fill="#CACACA"/>
<path d="M659.703 135H390.297C390.218 135 390.143 134.968 390.087 134.913C390.031 134.857 390 134.781 390 134.702C390 134.623 390.031 134.547 390.087 134.491C390.143 134.435 390.218 134.404 390.297 134.404H659.703C659.782 134.404 659.857 134.435 659.913 134.491C659.969 134.547 660 134.623 660 134.702C660 134.781 659.969 134.857 659.913 134.913C659.857 134.968 659.782 135 659.703 135Z" fill="#4B4B4B"/>
<path d="M591.941 51.9078C591.941 52.0986 591.938 52.2923 591.935 52.483C591.932 52.7125 591.926 52.939 591.917 53.1684C591.908 53.3681 591.899 53.5648 591.887 53.7615C591.851 54.4201 591.795 55.0757 591.718 55.7343C591.7 55.9012 591.679 56.0651 591.655 56.232C591.638 56.3602 591.62 56.4913 591.599 56.6224C591.578 56.7684 591.557 56.9145 591.534 57.0605C591.486 57.3704 591.433 57.6804 591.373 57.9903C591.344 58.1453 591.314 58.3002 591.281 58.4552C591.219 58.7621 591.15 59.0721 591.079 59.379C591.073 59.4029 591.067 59.4297 591.061 59.4535C591.026 59.6055 590.99 59.7545 590.951 59.9065C590.94 59.9512 590.931 59.993 590.916 60.0376C590.889 60.1509 590.859 60.2641 590.83 60.3774C590.788 60.5353 590.746 60.6903 590.702 60.8482C590.631 61.0926 590.559 61.334 590.485 61.5784C590.476 61.6038 590.468 61.6296 590.461 61.6559C590.319 62.1178 590.167 62.5737 590.001 63.0267C589.915 63.2651 589.823 63.5065 589.731 63.7449C589.639 63.9833 589.544 64.2218 589.446 64.4572C589.35 64.6867 589.252 64.9161 589.154 65.1426C589.131 65.1962 589.107 65.2499 589.08 65.3035C588.976 65.5389 588.869 65.7684 588.759 65.9979C588.756 66.0009 588.756 66.0068 588.753 66.0098C588.667 66.1946 588.575 66.3794 588.483 66.5611C588.483 66.5667 588.481 66.572 588.477 66.576C588.388 66.7549 588.296 66.9337 588.201 67.1095L588.049 67.3985L588.032 67.4314C587.842 67.786 587.646 68.1376 587.438 68.4863C587.393 68.5638 587.349 68.6413 587.304 68.7158C587.259 68.7932 587.212 68.8707 587.164 68.9452C587.135 68.9989 587.102 69.0525 587.066 69.1062C587.004 69.2075 586.942 69.3118 586.876 69.4131C586.864 69.434 586.849 69.4549 586.838 69.4757C586.725 69.6515 586.612 69.8244 586.499 70.0002C586.359 70.2118 586.217 70.4204 586.071 70.629L582.845 75.8085L582.706 75.6923L582.667 75.6565H582.664L582.537 75.5492L582.186 75.2512C582.079 75.3555 581.975 75.4598 581.868 75.5611C581.827 75.6028 581.782 75.6416 581.741 75.6833C581.708 75.7131 581.678 75.7429 581.645 75.7727C576.069 81.2367 568.651 84.4008 560.859 84.6386H560.85C554.952 84.8011 549.114 83.4186 543.911 80.6273C543.795 80.5677 543.682 80.5081 543.569 80.4395C542.892 80.07 542.23 79.6796 541.579 79.2624C541.576 79.2594 541.573 79.2594 541.57 79.2564C540.816 78.72 540.079 78.1478 539.36 77.5399C535.504 74.2786 532.453 70.1654 530.447 65.5229C528.441 60.8803 527.534 55.8345 527.797 50.7813C527.806 50.5816 527.818 50.3849 527.833 50.1852C527.88 49.464 527.953 48.7458 528.052 48.0306C528.079 47.8309 528.109 47.6313 528.139 47.4346H591.638C591.762 48.3465 591.848 49.2634 591.896 50.1852C591.926 50.7605 591.941 51.3327 591.941 51.9078Z" fill="#F0F0F0"/>
<path d="M591.742 50.9005C590.6 42.3056 586.77 34.4597 580.95 28.7892C575.129 23.1187 567.704 20 560.024 20C552.344 20 544.918 23.1187 539.098 28.7892C533.277 34.4597 529.448 42.3056 528.306 50.9005C528.276 51.1221 528.246 51.3471 528.22 51.5721C528.122 52.378 528.049 53.1873 528 54H592C591.952 52.9623 591.866 51.9292 591.742 50.9005Z" fill="#FF9600"/>
<path d="M576.633 75.6812L566 79.7804V65.0149C566.339 58.267 572.088 57.7221 577.489 58.0842C578.396 58.0842 579.295 58.2634 580.133 58.6117C580.971 58.9599 581.733 59.4704 582.374 60.114C583.016 60.7576 583.524 61.5217 583.872 62.3626C584.219 63.2035 584.397 64.1047 584.397 65.0149L580.633 70.6812L576.633 75.6812Z" fill="#FF9600"/>
<path d="M543.569 70.1283V70.1313C543.569 70.1343 543.572 70.1343 543.575 70.1343L543.569 70.1283ZM536.17 47.4346C536.158 47.5091 536.143 47.5836 536.132 47.6581C536.143 47.5836 536.158 47.5091 536.173 47.4346H536.17ZM535.802 50.1852C535.793 50.2985 535.784 50.4117 535.778 50.525C535.784 50.4117 535.793 50.2985 535.805 50.1852C535.804 50.1643 535.805 50.1434 535.808 50.1227C535.805 50.1435 535.805 50.1644 535.802 50.1852ZM543.569 70.1313C543.569 70.1343 543.572 70.1343 543.575 70.1343L543.569 70.1283V70.1313ZM536.17 47.4346C536.158 47.5091 536.143 47.5836 536.132 47.6581C536.143 47.5836 536.158 47.5091 536.173 47.4346H536.17ZM535.778 50.525C535.784 50.4117 535.793 50.2985 535.805 50.1852C535.804 50.1643 535.805 50.1434 535.808 50.1227C535.805 50.1435 535.805 50.1644 535.802 50.1852C535.793 50.2985 535.784 50.4117 535.778 50.525ZM627.542 105.347C627.485 105.286 627.423 105.228 627.358 105.175L627.355 105.172L612.646 92.7177L612.266 92.3959L610.82 91.171L610.457 90.864L608.396 89.1177L607.832 88.6408L606.664 87.6515L606.067 87.1448L600.436 82.3796L597.207 79.6468L596.773 79.2803L587.259 71.225C587.405 71.0164 587.547 70.8078 587.687 70.5962C587.8 70.4204 587.913 70.2475 588.026 70.0717C588.038 70.0508 588.052 70.03 588.064 70.0091C588.13 69.9077 588.192 69.8035 588.254 69.7021C588.29 69.6485 588.323 69.5948 588.352 69.5412C588.4 69.4667 588.447 69.3892 588.492 69.3117C588.537 69.2372 588.581 69.1598 588.626 69.0823C588.834 68.7336 589.03 68.3819 589.22 68.0273L589.238 67.9945L589.389 67.7054C589.484 67.5296 589.576 67.3508 589.665 67.172C589.669 67.168 589.671 67.1626 589.671 67.1571C589.763 66.9753 589.855 66.7906 589.942 66.6058C589.944 66.6028 589.944 66.5969 589.947 66.5939C590.057 66.3644 590.164 66.1349 590.268 65.8995C590.295 65.8459 590.319 65.7922 590.343 65.7386C590.44 65.5121 590.539 65.2827 590.634 65.0532C590.732 64.8177 590.827 64.5793 590.919 64.3409C591.011 64.1025 591.103 63.8611 591.189 63.6227C591.352 63.1667 591.506 62.7098 591.649 62.2518C591.656 62.2256 591.664 62.1997 591.673 62.1743C591.747 61.93 591.819 61.6886 591.89 61.4442C591.935 61.2862 591.976 61.1313 592.018 60.9733C592.047 60.8601 592.077 60.7469 592.104 60.6336C592.119 60.5889 592.128 60.5472 592.139 60.5025C592.178 60.3505 592.214 60.2015 592.249 60.0495C592.255 60.0257 592.261 59.9989 592.267 59.975C592.338 59.6681 592.407 59.3581 592.469 59.0512C592.502 58.8962 592.532 58.7412 592.561 58.5863C592.618 58.2764 592.674 57.9664 592.722 57.6565C592.745 57.5105 592.766 57.3644 592.787 57.2184C592.808 57.0873 592.826 56.9561 592.843 56.828C592.867 56.6611 592.888 56.4972 592.906 56.3303C592.983 55.6717 593.039 55.0161 593.075 54.3574C593.087 54.1608 593.096 53.9641 593.105 53.7644C593.114 53.5349 593.12 53.3085 593.123 53.079C593.126 52.8883 593.129 52.6946 593.129 52.5038C593.129 51.9287 593.114 51.3564 593.084 50.7813C593.037 49.8604 592.95 48.9436 592.826 48.0306C591.761 40.227 587.934 33.0683 582.042 27.863C576.151 22.6577 568.589 19.7534 560.739 19.6811C552.889 19.6087 545.275 22.3732 539.289 27.4691C533.303 32.565 529.345 39.6519 528.139 47.4346C528.109 47.6313 528.079 47.831 528.052 48.0306C527.954 48.7459 527.881 49.4641 527.833 50.1853C527.818 50.3849 527.806 50.5816 527.797 50.7813C527.534 55.8345 528.441 60.8803 530.447 65.5229C532.453 70.1655 535.504 74.2787 539.36 77.5399C540.079 78.1479 540.816 78.72 541.57 79.2565C541.573 79.2594 541.576 79.2594 541.579 79.2624C541.832 79.4412 542.084 79.617 542.34 79.7899C542.746 80.0581 543.156 80.3204 543.569 80.5707C543.602 80.5885 543.635 80.6094 543.667 80.6273C544.024 80.8419 544.383 81.0475 544.743 81.2472H544.745C546.083 81.9852 547.472 82.6266 548.901 83.1664C553.093 84.749 557.565 85.4528 562.039 85.2346H562.047C567.269 84.9812 572.354 83.4715 576.872 80.8329C577.529 80.4515 578.176 80.0432 578.809 79.6081C578.966 79.5008 579.127 79.3905 579.281 79.2803C579.471 79.1462 579.661 79.0061 579.851 78.8661C579.854 78.8661 579.854 78.8631 579.857 78.8631C579.871 78.8512 579.886 78.8402 579.902 78.8303C580.03 78.7319 580.16 78.6336 580.285 78.5382C580.318 78.5144 580.35 78.4906 580.383 78.4637C580.392 78.4577 580.4 78.4507 580.407 78.4429C580.481 78.3892 580.552 78.3296 580.627 78.273C580.701 78.2164 580.772 78.1568 580.846 78.0972C580.859 78.0892 580.871 78.0802 580.882 78.0703C580.965 78.0018 581.048 77.9362 581.132 77.8677C581.218 77.7992 581.301 77.7276 581.381 77.6591C581.464 77.5905 581.544 77.522 581.628 77.4505C581.699 77.3909 581.773 77.3283 581.844 77.2627C581.868 77.2448 581.889 77.224 581.913 77.2031C581.922 77.1943 581.932 77.1863 581.942 77.1793C582.04 77.0958 582.136 77.0094 582.231 76.923C582.254 76.9021 582.275 76.8812 582.299 76.8604C582.444 76.7293 582.59 76.5981 582.733 76.4611C582.765 76.4312 582.801 76.3985 582.834 76.3687C582.866 76.3388 582.896 76.3091 582.929 76.2793C582.97 76.2376 583.015 76.1988 583.056 76.1571C583.163 76.0557 583.267 75.9515 583.374 75.8472L583.725 76.1452L583.852 76.2525H583.855L583.894 76.2882L584.034 76.4045L586.107 78.1627L586.151 78.2014L586.187 78.2283L586.422 78.4279L586.891 78.8273L587.36 79.2236L587.429 79.2803L589.612 81.128L589.915 81.3843L592.021 83.1664L602.922 92.3959L603.302 92.7177L618.222 105.348L622.047 108.587L623.47 109.791C623.772 110.047 624.122 110.241 624.498 110.362C624.875 110.483 625.272 110.528 625.666 110.495C626.061 110.462 626.444 110.351 626.796 110.169C627.147 109.987 627.46 109.737 627.715 109.433C627.928 109.182 628.098 108.895 628.217 108.587C628.432 108.04 628.484 107.442 628.364 106.866C628.244 106.29 627.958 105.762 627.542 105.347ZM541.502 36.2651C544.482 32.7221 548.4 30.0973 552.804 28.6937C557.207 27.2902 561.917 27.1653 566.388 28.3333C570.86 29.5014 574.911 31.9149 578.073 35.2949C581.235 38.6748 583.38 42.8835 584.259 47.4346C584.298 47.6343 584.334 47.8309 584.366 48.0306C584.488 48.7429 584.577 49.4641 584.631 50.1852C584.645 50.3849 584.66 50.5816 584.669 50.7813C584.696 51.2283 584.708 51.6783 584.708 52.1253C584.71 54.8369 584.262 57.5299 583.383 60.0942V60.0972C582.401 62.9723 580.893 65.6385 578.937 67.9588C578.895 68.0065 578.853 68.0571 578.809 68.1048C578.417 68.5697 578.004 69.0167 577.579 69.4429C577.576 69.4459 577.573 69.4518 577.57 69.4548C577.425 69.6008 577.276 69.7499 577.128 69.8869C576.825 70.182 576.516 70.4621 576.201 70.7303C575.729 71.1446 575.244 71.533 574.748 71.8955C574.582 72.0177 574.416 72.137 574.246 72.2562C574.08 72.3754 573.911 72.4886 573.741 72.6018C573.403 72.8283 573.058 73.0459 572.711 73.2515C572.538 73.3558 572.36 73.4571 572.185 73.5555C572.01 73.6568 571.832 73.7521 571.653 73.8446C571.475 73.9399 571.297 74.0323 571.116 74.1217C570.756 74.3035 570.394 74.4733 570.026 74.6313C569.842 74.7147 569.657 74.7922 569.473 74.8637C569.357 74.9114 569.244 74.9591 569.129 75.0008C569.083 75.0218 569.037 75.0398 568.989 75.0545C568.927 75.0813 568.864 75.1051 568.802 75.126C568.782 75.1352 568.761 75.1432 568.74 75.1498C568.612 75.2005 568.487 75.2452 568.356 75.2899C568.169 75.3585 567.982 75.4211 567.792 75.4807C567.602 75.5432 567.415 75.6028 567.225 75.6565C567.035 75.7161 566.841 75.7697 566.651 75.8204C566.458 75.874 566.268 75.9247 566.075 75.9694C565.87 76.023 565.665 76.0707 565.457 76.1154C565.276 76.1572 565.098 76.1929 564.917 76.2257C564.747 76.2614 564.575 76.2913 564.406 76.3211C564.168 76.3628 563.931 76.4015 563.69 76.4343C563.559 76.4552 563.432 76.4731 563.301 76.485C563.244 76.4939 563.191 76.4999 563.138 76.5058C562.971 76.5297 562.805 76.5476 562.641 76.5624C562.597 76.5654 562.555 76.5714 562.514 76.5744C562.333 76.5923 562.148 76.6072 561.967 76.622C561.578 76.6489 561.192 76.6667 560.803 76.6757C560.607 76.6787 560.408 76.6816 560.212 76.6816C560.016 76.6816 559.82 76.6787 559.624 76.6727C559.624 76.6727 559.624 76.6757 559.621 76.6727C559.618 76.6757 559.618 76.6757 559.615 76.6727C559.614 76.6731 559.614 76.6734 559.613 76.6736C559.613 76.6739 559.612 76.674 559.612 76.674C559.611 76.674 559.611 76.6739 559.61 76.6736C559.61 76.6734 559.609 76.6731 559.609 76.6727C559.599 76.6757 559.589 76.6757 559.579 76.6727C559.44 76.6727 559.3 76.6667 559.163 76.6578C559.062 76.6548 558.958 76.6518 558.854 76.6429C558.715 76.6369 558.575 76.628 558.436 76.6161C558.391 76.6161 558.346 76.6101 558.302 76.6072C558.281 76.6067 558.26 76.6047 558.24 76.6012C558.097 76.5893 557.951 76.5773 557.809 76.5624C557.738 76.5565 557.663 76.5505 557.592 76.5416C557.375 76.5177 557.158 76.4909 556.944 76.4612C556.701 76.4313 556.457 76.3956 556.217 76.3509C556.104 76.3359 555.994 76.3151 555.884 76.2942C555.739 76.2704 555.593 76.2436 555.447 76.2138C555.296 76.184 555.144 76.1542 554.993 76.1184C554.871 76.0916 554.746 76.0648 554.625 76.035C554.565 76.0231 554.506 76.0082 554.449 75.9933C554.138 75.9188 553.829 75.8383 553.523 75.7489C553.33 75.6952 553.136 75.6386 552.946 75.579C552.685 75.4986 552.427 75.4121 552.168 75.3197C552.067 75.287 551.969 75.2512 551.868 75.2125C551.767 75.1797 551.669 75.1409 551.568 75.1022C551.476 75.0694 551.384 75.0336 551.295 74.9979C551.146 74.9413 551.001 74.8817 550.855 74.8221C550.555 74.6998 550.261 74.5717 549.967 74.4347C549.801 74.3542 549.635 74.2767 549.471 74.1962C548.827 73.8833 548.192 73.5356 547.567 73.1532C547.413 73.0608 547.258 72.9625 547.104 72.8641C546.911 72.7449 546.724 72.6197 546.537 72.4946C546.433 72.4231 546.332 72.3545 546.231 72.283C546.043 72.1519 545.859 72.0177 545.678 71.8836C545.583 71.8151 545.488 71.7436 545.396 71.6721C545.066 71.4217 544.742 71.1595 544.425 70.8913C544.273 70.7631 544.122 70.632 543.973 70.4979C543.911 70.4442 543.848 70.3876 543.786 70.331C543.715 70.2654 543.643 70.2028 543.575 70.1343L543.569 70.1283C543.465 70.0359 543.361 69.9376 543.26 69.8393C543.103 69.6903 542.948 69.5383 542.8 69.3833C542.645 69.2314 542.497 69.0734 542.351 68.9184C542.203 68.7635 542.06 68.6055 541.921 68.4446C541.778 68.2866 541.638 68.1257 541.502 67.9618C541.368 67.8068 541.238 67.6459 541.113 67.4879C540.81 67.1125 540.521 66.73 540.245 66.3406C540.118 66.1618 539.996 65.983 539.877 65.8012C539.749 65.6164 539.628 65.4287 539.512 65.2409C539.39 65.0532 539.274 64.8624 539.161 64.6687C539.158 64.6621 539.154 64.6561 539.149 64.6508C538.927 64.2724 538.713 63.8909 538.514 63.5035C538.309 63.1101 538.116 62.7128 537.935 62.3114C537.842 62.1118 537.753 61.9091 537.67 61.7065C537.498 61.2982 537.337 60.8899 537.189 60.4757C537.115 60.276 537.046 60.0763 536.978 59.8737C536.976 59.8603 536.972 59.8473 536.966 59.835C536.83 59.4237 536.705 59.0095 536.595 58.5923C536.592 58.5863 536.592 58.5804 536.589 58.5744C536.533 58.3688 536.479 58.1631 536.432 57.9545C536.384 57.7727 536.342 57.5909 536.304 57.4062C536.259 57.2005 536.215 56.9949 536.176 56.7863C536.155 56.679 536.135 56.5717 536.117 56.4644C536.099 56.375 536.084 56.2826 536.069 56.1933C536.054 56.1039 536.039 56.0114 536.025 55.9191C535.995 55.7373 535.968 55.5555 535.944 55.3737C535.915 55.1591 535.891 54.9446 535.867 54.727C535.84 54.4678 535.817 54.2084 535.796 53.9462C535.781 53.7704 535.772 53.5916 535.763 53.4128C535.754 53.2489 535.745 53.085 535.742 52.9211C535.739 52.9124 535.739 52.9029 535.742 52.8942C535.742 52.8939 535.742 52.8934 535.742 52.8929C535.741 52.8924 535.741 52.8918 535.741 52.8913C535.741 52.8907 535.741 52.8902 535.742 52.8896C535.742 52.8891 535.742 52.8887 535.742 52.8883C535.739 52.8853 535.739 52.8853 535.742 52.8823C535.742 52.8819 535.742 52.8815 535.742 52.881C535.741 52.8805 535.741 52.8799 535.741 52.8793C535.741 52.8788 535.741 52.8782 535.742 52.8777C535.742 52.8772 535.742 52.8767 535.742 52.8764C535.739 52.8108 535.737 52.7453 535.737 52.6797C535.731 52.486 535.728 52.2923 535.728 52.0986C535.728 51.9227 535.731 51.7499 535.734 51.5741C535.739 51.3297 535.748 51.0853 535.76 50.8409C535.76 50.7873 535.766 50.7366 535.769 50.683C535.772 50.6293 535.775 50.5786 535.778 50.525C535.784 50.4117 535.793 50.2985 535.805 50.1852C535.804 50.1643 535.805 50.1434 535.808 50.1227C535.817 49.9945 535.829 49.8664 535.84 49.7383C535.864 49.482 535.894 49.2227 535.927 48.9664C535.944 48.8383 535.959 48.7101 535.98 48.582C535.992 48.4926 536.007 48.4002 536.022 48.3078C536.034 48.2154 536.048 48.1231 536.066 48.0307C536.087 47.9085 536.108 47.7833 536.132 47.6581C536.143 47.5836 536.158 47.5091 536.173 47.4346C536.23 47.1366 536.292 46.8386 536.36 46.5406C536.429 46.2396 536.506 45.9416 536.589 45.6436C536.669 45.3426 536.758 45.0416 536.853 44.7406C536.898 44.5886 536.945 44.4396 536.999 44.2906C537.097 43.9896 537.201 43.6916 537.317 43.3966C537.37 43.2505 537.427 43.1015 537.489 42.9555C537.608 42.6605 537.733 42.3654 537.86 42.0764C537.926 41.9303 537.991 41.7843 538.062 41.6383C538.196 41.3492 538.336 41.0601 538.487 40.777C538.633 40.488 538.79 40.2049 538.95 39.9247C539.111 39.6446 539.277 39.3644 539.452 39.0873C539.533 38.9502 539.622 38.8101 539.714 38.676C539.892 38.4019 540.079 38.1277 540.269 37.8595C540.652 37.317 541.065 36.7836 541.502 36.2651ZM535.802 50.1852C535.793 50.2985 535.784 50.4117 535.778 50.525C535.784 50.4117 535.793 50.2985 535.805 50.1852C535.804 50.1643 535.805 50.1434 535.808 50.1227C535.805 50.1435 535.805 50.1644 535.802 50.1852ZM536.17 47.4346C536.158 47.5091 536.143 47.5836 536.132 47.6581C536.143 47.5836 536.158 47.5091 536.173 47.4346H536.17ZM543.569 70.1283V70.1313C543.569 70.1343 543.572 70.1343 543.575 70.1343L543.569 70.1283Z" fill="#4B4B4B"/>
<path opacity="0.3" d="M544.425 70.8912C539.727 66.9134 536.691 61.3084 535.922 55.1891C535.152 49.0698 536.704 42.8838 540.269 37.8594C539.801 38.3325 539.348 38.828 538.911 39.3459C536.837 41.812 535.268 44.6639 534.292 47.7386C533.317 50.8133 532.954 54.0507 533.226 57.266C533.497 60.4812 534.397 63.6113 535.874 66.4775C537.352 69.3438 539.377 71.89 541.835 73.9709C546.799 78.1735 553.224 80.2254 559.696 79.6753C566.168 79.1252 572.157 76.0181 576.346 71.0375C576.782 70.519 577.192 69.9879 577.578 69.4444C573.241 73.8161 567.425 76.3916 561.283 76.6597C555.141 76.9277 549.124 74.8686 544.425 70.8912Z" fill="black"/>
</g>
<path d="M1079.98 46.1984V150H0C0.0399371 149.451 0.109827 148.891 0.109827 148.342C0.109827 114.98 0.109827 81.628 0.119811 48.2661C0.119811 47.447 0.0998428 46.548 0.439309 45.8588C0.579089 45.5791 1.66738 45.8089 2.31635 45.749C5.12194 45.4793 7.90755 45.1197 10.7131 44.9099C15.5755 44.5403 20.4578 44.2307 25.3301 43.931C28.4253 43.7412 31.5204 43.5714 34.6155 43.4616C39.9072 43.2718 45.1989 42.9721 50.4905 43.0021C64.2089 43.072 77.9174 43.2718 91.6358 43.4616C95.29 43.5115 98.9443 43.7412 102.599 43.931C106.682 44.1408 110.766 44.3705 114.849 44.6502C118.843 44.9299 122.837 45.2395 126.83 45.5991C131.643 46.0386 136.455 46.5181 141.258 47.0375C146.06 47.5669 150.873 48.0763 155.655 48.7555C161.027 49.5147 166.388 50.3537 171.72 51.3526C180.246 52.9407 188.813 54.429 197.24 56.4467C207.344 58.874 217.358 61.6908 227.332 64.5775C232.704 66.1357 237.995 68.0335 243.197 70.0912C250.326 72.918 257.435 75.8146 264.354 79.1009C270.524 82.0276 276.455 85.4736 282.445 88.7898C288.386 92.0861 294.257 95.5222 300.178 98.8484C306.697 102.504 313.137 106.32 319.797 109.696C327.534 113.612 335.412 117.257 343.34 120.783C351.407 124.379 359.794 127.136 368.37 129.214C372.903 130.312 377.506 131.231 382.129 131.861C387.31 132.57 392.542 133.259 397.754 133.259C490.099 133.339 582.443 133.319 674.798 133.309C678.342 133.309 681.887 133.229 685.431 133.059C688.357 132.919 691.302 132.78 694.197 132.33C699.559 131.511 704.94 130.722 710.202 129.453C715.783 128.105 721.275 126.337 726.736 124.539C734.674 121.932 742.362 118.646 749.81 114.87C758.965 110.225 768.001 105.361 777.027 100.447C783.866 96.7208 790.606 92.8152 797.375 88.9596C806.061 84.0153 814.867 79.3107 824.063 75.3652C832.909 71.5695 841.875 68.0935 851.1 65.3666C860.266 62.6597 869.471 60.0726 878.727 57.6853C884.747 56.1271 890.868 54.9385 896.968 53.7199C902.02 52.721 907.102 51.9019 912.174 51.0429C915.569 50.4636 918.964 49.8842 922.378 49.4148C926.382 48.8554 930.396 48.4059 934.409 47.9265C939.132 47.3671 943.844 46.7878 948.567 46.2883C952.191 45.9088 955.826 45.5991 959.47 45.3294C964.262 44.9698 969.055 44.6602 973.847 44.3605C976.942 44.1708 980.037 43.991 983.133 43.8811C988.464 43.6913 993.796 43.4216 999.127 43.4216C1010.5 43.4216 1021.86 43.5215 1033.23 43.6513C1037.89 43.7013 1042.54 43.921 1047.19 44.1208C1051.83 44.3206 1056.48 44.5903 1061.12 44.84C1063.98 44.9898 1066.83 45.1496 1069.69 45.3294C1070.87 45.4093 1072.04 45.6091 1073.23 45.709C1075.49 45.8788 1077.74 46.0087 1080 46.1585L1079.98 46.1984Z" fill="#FF9600"/>
</g>
<defs>
<clipPath id="clip0_66_36">
<rect width="1080" height="150" fill="white"/>
</clipPath>
<clipPath id="clip1_66_36">
<rect width="270" height="135" fill="white" transform="translate(390)"/>
</clipPath>
</defs>
</svg>
