<svg width="2102" height="150" viewBox="0 0 2102 150" fill="none" xmlns="http://www.w3.org/2000/svg">
<g clip-path="url(#clip0_66_36)">
<g clip-path="url(#clip1_66_36)">
<path d="M974.719 110.414C982.049 110.414 987.991 104.452 987.991 97.0981C987.991 89.744 982.049 83.7822 974.719 83.7822C967.389 83.7822 961.447 89.744 961.447 97.0981C961.447 104.452 967.389 110.414 974.719 110.414Z" fill="#E4E4E4"/>
<path opacity="0.2" d="M964.919 88.2041C963.681 91.1095 963.513 94.362 964.445 97.3802C965.378 100.398 967.349 102.986 970.007 104.68C972.666 106.374 975.838 107.065 978.957 106.628C982.076 106.192 984.939 104.657 987.034 102.297C986.278 104.072 985.146 105.661 983.717 106.954C982.288 108.247 980.596 109.212 978.758 109.783C976.92 110.355 974.981 110.518 973.073 110.263C971.166 110.008 969.337 109.339 967.713 108.304C966.089 107.269 964.708 105.892 963.667 104.269C962.626 102.645 961.949 100.814 961.684 98.9023C961.418 96.9904 961.57 95.0433 962.128 93.196C962.687 91.3488 963.639 89.6454 964.919 88.2041Z" fill="black"/>
<path d="M974.755 97.0981H974.792L975.448 134.851H974.062L974.755 97.0981Z" fill="#4B4B4B"/>
<path d="M947.866 85.5817C962.644 85.5817 974.624 73.5618 974.624 58.7345C974.624 43.9071 962.644 31.8872 947.866 31.8872C933.087 31.8872 921.107 43.9071 921.107 58.7345C921.107 73.5618 933.087 85.5817 947.866 85.5817Z" fill="#E4E4E4"/>
<path opacity="0.2" d="M928.108 40.8027C925.612 46.6606 925.274 53.2181 927.153 59.3034C929.032 65.3887 933.007 70.6052 938.367 74.0209C943.727 77.4366 950.122 78.8288 956.411 77.9488C962.7 77.0688 968.472 73.9738 972.696 69.2171C971.171 72.796 968.889 75.9995 966.008 78.6058C963.127 81.212 959.715 83.1585 956.01 84.3106C952.304 85.4626 948.393 85.7926 944.548 85.2777C940.703 84.7627 937.015 83.4152 933.741 81.3284C930.466 79.2416 927.683 76.4654 925.584 73.1922C923.485 69.9191 922.12 66.2272 921.584 62.3723C921.048 58.5175 921.354 54.5918 922.481 50.8674C923.607 47.1429 925.527 43.7087 928.108 40.8027Z" fill="black"/>
<path d="M947.939 58.7344H948.013L949.336 134.851H946.543L947.939 58.7344Z" fill="#4B4B4B"/>
<path d="M1124.29 95.4536H1001.64V131.933H1124.29V95.4536Z" fill="#F0F0F0"/>
<path d="M1070.11 102.993H1055.81V131.933H1070.11V102.993Z" fill="#CACACA"/>
<path d="M1117.14 52.4082H1008.79V85.969H1117.14V52.4082Z" fill="#F0F0F0"/>
<path d="M1128.12 54.4754H997.802C997.585 54.4754 997.372 54.4102 997.192 54.288C997.011 54.1658 996.872 53.9923 996.79 53.7899C996.709 53.5874 996.69 53.3651 996.736 53.1517C996.781 52.9383 996.89 52.7434 997.046 52.5921L1032.66 18.2443V3.28312C1032.66 2.99298 1032.78 2.71481 1032.98 2.50964C1033.19 2.30448 1033.46 2.18908 1033.75 2.18875H1040.78C1041.07 2.18907 1041.35 2.30447 1041.55 2.50963C1041.76 2.7148 1041.87 2.99297 1041.87 3.28312V9.36154L1044.56 6.76716C1048.97 2.52169 1054.81 0.105215 1060.91 0.0033557C1067.02 -0.0985038 1072.93 2.1218 1077.47 6.21807L1128.85 52.5672C1129.01 52.7152 1129.13 52.9097 1129.18 53.1249C1129.23 53.3402 1129.22 53.5661 1129.14 53.7728C1129.06 53.9795 1128.92 54.1573 1128.74 54.2828C1128.56 54.4082 1128.34 54.4754 1128.12 54.4754Z" fill="#CACACA"/>
<path d="M1037.39 60.9199C1038.3 60.9199 1039.19 61.0992 1040.03 61.4475C1040.87 61.7958 1041.63 62.3064 1042.27 62.95C1042.92 63.5936 1043.42 64.3576 1043.77 65.1986C1044.12 66.0395 1044.3 66.9407 1044.3 67.8509V77.2139H1030.48V67.8509C1030.48 66.9407 1030.66 66.0395 1031.01 65.1986C1031.35 64.3576 1031.86 63.5936 1032.5 62.95C1033.15 62.3064 1033.91 61.7958 1034.75 61.4475C1035.58 61.0992 1036.48 60.9199 1037.39 60.9199Z" fill="white"/>
<path d="M1062.96 61.0415C1064.79 61.0415 1066.55 61.7717 1067.85 63.0716C1069.14 64.3714 1069.87 66.1343 1069.87 67.9725V77.3355H1056.05V67.9725C1056.05 66.1343 1056.78 64.3714 1058.08 63.0716C1059.37 61.7717 1061.13 61.0415 1062.96 61.0415Z" fill="white"/>
<path d="M1088.53 61.1631C1090.37 61.1631 1092.12 61.8933 1093.42 63.1931C1094.71 64.493 1095.44 66.2559 1095.44 68.0941V77.4571H1081.63V68.0941C1081.63 66.2559 1082.35 64.493 1083.65 63.1931C1084.94 61.8933 1086.7 61.1631 1088.53 61.1631Z" fill="white"/>
<path d="M1098.71 102.628C1100.55 102.628 1102.3 103.358 1103.6 104.658C1104.89 105.958 1105.62 107.721 1105.62 109.559V118.922H1091.81V109.559C1091.81 107.721 1092.53 105.958 1093.83 104.658C1095.12 103.358 1096.88 102.628 1098.71 102.628Z" fill="white"/>
<path d="M1030.36 102.628C1032.19 102.628 1033.95 103.358 1035.24 104.658C1036.54 105.958 1037.27 107.721 1037.27 109.559V118.922H1023.45V109.559C1023.45 108.649 1023.63 107.747 1023.98 106.907C1024.32 106.066 1024.83 105.302 1025.47 104.658C1026.12 104.014 1026.88 103.504 1027.72 103.156C1028.55 102.807 1029.45 102.628 1030.36 102.628Z" fill="white"/>
<path d="M1142.2 96.0234L1119.2 85.8093C1119.07 85.7544 1118.94 85.7261 1118.8 85.7261H1009.15C1009.03 85.7261 1008.9 85.7504 1008.79 85.7977L983.745 96.0118C983.536 96.0968 983.364 96.2517 983.257 96.4502C983.15 96.6486 983.115 96.8782 983.158 97.0996C983.201 97.321 983.32 97.5205 983.494 97.6639C983.667 97.8073 983.885 97.8858 984.11 97.8858H990.608V131.447H989.88V134.851H1136.04V131.447H1134.83V97.8857H1141.81C1142.04 97.8857 1142.25 97.8091 1142.42 97.6686C1142.6 97.5281 1142.72 97.3324 1142.76 97.1141C1142.81 96.8959 1142.78 96.6684 1142.68 96.4698C1142.57 96.2713 1142.41 96.1137 1142.2 96.0234ZM1132.89 131.447H992.547V97.8857H1132.89V131.447Z" fill="#CACACA"/>
<path d="M1045.99 75.8765H1028.3V78.7948H1045.99V75.8765Z" fill="#CACACA"/>
<path d="M1071.93 75.8765H1054.24V78.7948H1071.93V75.8765Z" fill="#CACACA"/>
<path d="M1097.87 75.8765H1080.17V78.7948H1097.87V75.8765Z" fill="#CACACA"/>
<path d="M1107.56 117.949H1089.87V120.868H1107.56V117.949Z" fill="#CACACA"/>
<path d="M1038.96 117.949H1021.27V120.868H1038.96V117.949Z" fill="#CACACA"/>
<path d="M1170.7 135H901.297C901.218 135 901.143 134.968 901.087 134.913C901.031 134.857 901 134.781 901 134.702C901 134.623 901.031 134.547 901.087 134.491C901.143 134.435 901.218 134.404 901.297 134.404H1170.7C1170.78 134.404 1170.86 134.435 1170.91 134.491C1170.97 134.547 1171 134.623 1171 134.702C1171 134.781 1170.97 134.857 1170.91 134.913C1170.86 134.968 1170.78 135 1170.7 135Z" fill="#4B4B4B"/>
<path d="M1102.94 51.9078C1102.94 52.0986 1102.94 52.2923 1102.93 52.483C1102.93 52.7125 1102.93 52.939 1102.92 53.1684C1102.91 53.3681 1102.9 53.5648 1102.89 53.7615C1102.85 54.4201 1102.8 55.0757 1102.72 55.7343C1102.7 55.9012 1102.68 56.0651 1102.66 56.232C1102.64 56.3602 1102.62 56.4913 1102.6 56.6224C1102.58 56.7684 1102.56 56.9145 1102.53 57.0605C1102.49 57.3704 1102.43 57.6804 1102.37 57.9903C1102.34 58.1453 1102.31 58.3002 1102.28 58.4552C1102.22 58.7621 1102.15 59.0721 1102.08 59.379C1102.07 59.4029 1102.07 59.4297 1102.06 59.4535C1102.03 59.6055 1101.99 59.7545 1101.95 59.9065C1101.94 59.9512 1101.93 59.993 1101.92 60.0376C1101.89 60.1509 1101.86 60.2641 1101.83 60.3774C1101.79 60.5353 1101.75 60.6903 1101.7 60.8482C1101.63 61.0926 1101.56 61.334 1101.49 61.5784C1101.48 61.6038 1101.47 61.6296 1101.46 61.6559C1101.32 62.1178 1101.17 62.5737 1101 63.0267C1100.91 63.2651 1100.82 63.5065 1100.73 63.7449C1100.64 63.9833 1100.54 64.2218 1100.45 64.4572C1100.35 64.6867 1100.25 64.9161 1100.15 65.1426C1100.13 65.1962 1100.11 65.2499 1100.08 65.3035C1099.98 65.5389 1099.87 65.7684 1099.76 65.9979C1099.76 66.0009 1099.76 66.0068 1099.75 66.0098C1099.67 66.1946 1099.58 66.3794 1099.48 66.5611C1099.48 66.5667 1099.48 66.572 1099.48 66.576C1099.39 66.7549 1099.3 66.9337 1099.2 67.1095L1099.05 67.3985L1099.03 67.4314C1098.84 67.786 1098.65 68.1376 1098.44 68.4863C1098.39 68.5638 1098.35 68.6413 1098.3 68.7158C1098.26 68.7932 1098.21 68.8707 1098.16 68.9452C1098.13 68.9989 1098.1 69.0525 1098.07 69.1062C1098 69.2075 1097.94 69.3118 1097.88 69.4131C1097.86 69.434 1097.85 69.4549 1097.84 69.4757C1097.72 69.6515 1097.61 69.8244 1097.5 70.0002C1097.36 70.2118 1097.22 70.4204 1097.07 70.629L1093.85 75.8085L1093.71 75.6923L1093.67 75.6565H1093.66L1093.54 75.5492L1093.19 75.2512C1093.08 75.3555 1092.98 75.4598 1092.87 75.5611C1092.83 75.6028 1092.78 75.6416 1092.74 75.6833C1092.71 75.7131 1092.68 75.7429 1092.65 75.7727C1087.07 81.2367 1079.65 84.4008 1071.86 84.6386H1071.85C1065.95 84.8011 1060.11 83.4186 1054.91 80.6273C1054.79 80.5677 1054.68 80.5081 1054.57 80.4395C1053.89 80.07 1053.23 79.6796 1052.58 79.2624C1052.58 79.2594 1052.57 79.2594 1052.57 79.2564C1051.82 78.72 1051.08 78.1478 1050.36 77.5399C1046.5 74.2786 1043.45 70.1654 1041.45 65.5229C1039.44 60.8803 1038.53 55.8345 1038.8 50.7813C1038.81 50.5816 1038.82 50.3849 1038.83 50.1852C1038.88 49.464 1038.95 48.7458 1039.05 48.0306C1039.08 47.8309 1039.11 47.6313 1039.14 47.4346H1102.64C1102.76 48.3465 1102.85 49.2634 1102.9 50.1852C1102.93 50.7605 1102.94 51.3327 1102.94 51.9078Z" fill="#F0F0F0"/>
<path d="M1102.74 50.9005C1101.6 42.3056 1097.77 34.4597 1091.95 28.7892C1086.13 23.1187 1078.7 20 1071.02 20C1063.34 20 1055.92 23.1187 1050.1 28.7892C1044.28 34.4597 1040.45 42.3056 1039.31 50.9005C1039.28 51.1221 1039.25 51.3471 1039.22 51.5721C1039.12 52.378 1039.05 53.1873 1039 54H1103C1102.95 52.9623 1102.87 51.9292 1102.74 50.9005Z" fill="#FF9600"/>
<path d="M1087.63 75.6812L1077 79.7804V65.0149C1077.34 58.267 1083.09 57.7221 1088.49 58.0842C1089.4 58.0842 1090.29 58.2634 1091.13 58.6117C1091.97 58.9599 1092.73 59.4704 1093.37 60.114C1094.02 60.7576 1094.52 61.5217 1094.87 62.3626C1095.22 63.2035 1095.4 64.1047 1095.4 65.0149L1091.63 70.6812L1087.63 75.6812Z" fill="#FF9600"/>
<path d="M1054.57 70.1283V70.1313C1054.57 70.1343 1054.57 70.1343 1054.58 70.1343L1054.57 70.1283ZM1047.17 47.4346C1047.16 47.5091 1047.14 47.5836 1047.13 47.6581C1047.14 47.5836 1047.16 47.5091 1047.17 47.4346H1047.17ZM1046.8 50.1852C1046.79 50.2985 1046.78 50.4117 1046.78 50.525C1046.78 50.4117 1046.79 50.2985 1046.8 50.1852C1046.8 50.1643 1046.81 50.1434 1046.81 50.1227C1046.8 50.1435 1046.8 50.1644 1046.8 50.1852ZM1054.57 70.1313C1054.57 70.1343 1054.57 70.1343 1054.58 70.1343L1054.57 70.1283V70.1313ZM1047.17 47.4346C1047.16 47.5091 1047.14 47.5836 1047.13 47.6581C1047.14 47.5836 1047.16 47.5091 1047.17 47.4346H1047.17ZM1046.78 50.525C1046.78 50.4117 1046.79 50.2985 1046.8 50.1852C1046.8 50.1643 1046.81 50.1434 1046.81 50.1227C1046.8 50.1435 1046.8 50.1644 1046.8 50.1852C1046.79 50.2985 1046.78 50.4117 1046.78 50.525ZM1138.54 105.347C1138.48 105.286 1138.42 105.228 1138.36 105.175L1138.36 105.172L1123.65 92.7177L1123.27 92.3959L1121.82 91.171L1121.46 90.864L1119.4 89.1177L1118.83 88.6408L1117.66 87.6515L1117.07 87.1448L1111.44 82.3796L1108.21 79.6468L1107.77 79.2803L1098.26 71.225C1098.4 71.0164 1098.55 70.8078 1098.69 70.5962C1098.8 70.4204 1098.91 70.2475 1099.03 70.0717C1099.04 70.0508 1099.05 70.03 1099.06 70.0091C1099.13 69.9077 1099.19 69.8035 1099.25 69.7021C1099.29 69.6485 1099.32 69.5948 1099.35 69.5412C1099.4 69.4667 1099.45 69.3892 1099.49 69.3117C1099.54 69.2372 1099.58 69.1598 1099.63 69.0823C1099.83 68.7336 1100.03 68.3819 1100.22 68.0273L1100.24 67.9945L1100.39 67.7054C1100.48 67.5296 1100.58 67.3508 1100.67 67.172C1100.67 67.168 1100.67 67.1626 1100.67 67.1571C1100.76 66.9753 1100.86 66.7906 1100.94 66.6058C1100.94 66.6028 1100.94 66.5969 1100.95 66.5939C1101.06 66.3644 1101.16 66.1349 1101.27 65.8995C1101.29 65.8459 1101.32 65.7922 1101.34 65.7386C1101.44 65.5121 1101.54 65.2827 1101.63 65.0532C1101.73 64.8177 1101.83 64.5793 1101.92 64.3409C1102.01 64.1025 1102.1 63.8611 1102.19 63.6227C1102.35 63.1667 1102.51 62.7098 1102.65 62.2518C1102.66 62.2256 1102.66 62.1997 1102.67 62.1743C1102.75 61.93 1102.82 61.6886 1102.89 61.4442C1102.93 61.2862 1102.98 61.1313 1103.02 60.9733C1103.05 60.8601 1103.08 60.7469 1103.1 60.6336C1103.12 60.5889 1103.13 60.5472 1103.14 60.5025C1103.18 60.3505 1103.21 60.2015 1103.25 60.0495C1103.26 60.0257 1103.26 59.9989 1103.27 59.975C1103.34 59.6681 1103.41 59.3581 1103.47 59.0512C1103.5 58.8962 1103.53 58.7412 1103.56 58.5863C1103.62 58.2764 1103.67 57.9664 1103.72 57.6565C1103.75 57.5105 1103.77 57.3644 1103.79 57.2184C1103.81 57.0873 1103.83 56.9561 1103.84 56.828C1103.87 56.6611 1103.89 56.4972 1103.91 56.3303C1103.98 55.6717 1104.04 55.0161 1104.08 54.3574C1104.09 54.1608 1104.1 53.9641 1104.1 53.7644C1104.11 53.5349 1104.12 53.3085 1104.12 53.079C1104.13 52.8883 1104.13 52.6946 1104.13 52.5038C1104.13 51.9287 1104.11 51.3564 1104.08 50.7813C1104.04 49.8604 1103.95 48.9436 1103.83 48.0306C1102.76 40.227 1098.93 33.0683 1093.04 27.863C1087.15 22.6577 1079.59 19.7534 1071.74 19.6811C1063.89 19.6087 1056.28 22.3732 1050.29 27.4691C1044.3 32.565 1040.35 39.6519 1039.14 47.4346C1039.11 47.6313 1039.08 47.831 1039.05 48.0306C1038.95 48.7459 1038.88 49.4641 1038.83 50.1853C1038.82 50.3849 1038.81 50.5816 1038.8 50.7813C1038.53 55.8345 1039.44 60.8803 1041.45 65.5229C1043.45 70.1655 1046.5 74.2787 1050.36 77.5399C1051.08 78.1479 1051.82 78.72 1052.57 79.2565C1052.57 79.2594 1052.58 79.2594 1052.58 79.2624C1052.83 79.4412 1053.08 79.617 1053.34 79.7899C1053.75 80.0581 1054.16 80.3204 1054.57 80.5707C1054.6 80.5885 1054.63 80.6094 1054.67 80.6273C1055.02 80.8419 1055.38 81.0475 1055.74 81.2472H1055.75C1057.08 81.9852 1058.47 82.6266 1059.9 83.1664C1064.09 84.749 1068.56 85.4528 1073.04 85.2346H1073.05C1078.27 84.9812 1083.35 83.4715 1087.87 80.8329C1088.53 80.4515 1089.18 80.0432 1089.81 79.6081C1089.97 79.5008 1090.13 79.3905 1090.28 79.2803C1090.47 79.1462 1090.66 79.0061 1090.85 78.8661C1090.85 78.8661 1090.85 78.8631 1090.86 78.8631C1090.87 78.8512 1090.89 78.8402 1090.9 78.8303C1091.03 78.7319 1091.16 78.6336 1091.29 78.5382C1091.32 78.5144 1091.35 78.4906 1091.38 78.4637C1091.39 78.4577 1091.4 78.4507 1091.41 78.4429C1091.48 78.3892 1091.55 78.3296 1091.63 78.273C1091.7 78.2164 1091.77 78.1568 1091.85 78.0972C1091.86 78.0892 1091.87 78.0802 1091.88 78.0703C1091.97 78.0018 1092.05 77.9362 1092.13 77.8677C1092.22 77.7992 1092.3 77.7276 1092.38 77.6591C1092.46 77.5905 1092.54 77.522 1092.63 77.4505C1092.7 77.3909 1092.77 77.3283 1092.84 77.2627C1092.87 77.2448 1092.89 77.224 1092.91 77.2031C1092.92 77.1943 1092.93 77.1863 1092.94 77.1793C1093.04 77.0958 1093.14 77.0094 1093.23 76.923C1093.25 76.9021 1093.28 76.8812 1093.3 76.8604C1093.44 76.7293 1093.59 76.5981 1093.73 76.4611C1093.77 76.4312 1093.8 76.3985 1093.83 76.3687C1093.87 76.3388 1093.9 76.3091 1093.93 76.2793C1093.97 76.2376 1094.01 76.1988 1094.06 76.1571C1094.16 76.0557 1094.27 75.9515 1094.37 75.8472L1094.72 76.1452L1094.85 76.2525H1094.86L1094.89 76.2882L1095.03 76.4045L1097.11 78.1627L1097.15 78.2014L1097.19 78.2283L1097.42 78.4279L1097.89 78.8273L1098.36 79.2236L1098.43 79.2803L1100.61 81.128L1100.91 81.3843L1103.02 83.1664L1113.92 92.3959L1114.3 92.7177L1129.22 105.348L1133.05 108.587L1134.47 109.791C1134.77 110.047 1135.12 110.241 1135.5 110.362C1135.88 110.483 1136.27 110.528 1136.67 110.495C1137.06 110.462 1137.44 110.351 1137.8 110.169C1138.15 109.987 1138.46 109.737 1138.71 109.433C1138.93 109.182 1139.1 108.895 1139.22 108.587C1139.43 108.04 1139.48 107.442 1139.36 106.866C1139.24 106.29 1138.96 105.762 1138.54 105.347ZM1052.5 36.2651C1055.48 32.7221 1059.4 30.0973 1063.8 28.6937C1068.21 27.2902 1072.92 27.1653 1077.39 28.3333C1081.86 29.5014 1085.91 31.9149 1089.07 35.2949C1092.24 38.6748 1094.38 42.8835 1095.26 47.4346C1095.3 47.6343 1095.33 47.8309 1095.37 48.0306C1095.49 48.7429 1095.58 49.4641 1095.63 50.1852C1095.65 50.3849 1095.66 50.5816 1095.67 50.7813C1095.7 51.2283 1095.71 51.6783 1095.71 52.1253C1095.71 54.8369 1095.26 57.5299 1094.38 60.0942V60.0972C1093.4 62.9723 1091.89 65.6385 1089.94 67.9588C1089.89 68.0065 1089.85 68.0571 1089.81 68.1048C1089.42 68.5697 1089 69.0167 1088.58 69.4429C1088.58 69.4459 1088.57 69.4518 1088.57 69.4548C1088.42 69.6008 1088.28 69.7499 1088.13 69.8869C1087.82 70.182 1087.52 70.4621 1087.2 70.7303C1086.73 71.1446 1086.24 71.533 1085.75 71.8955C1085.58 72.0177 1085.42 72.137 1085.25 72.2562C1085.08 72.3754 1084.91 72.4886 1084.74 72.6018C1084.4 72.8283 1084.06 73.0459 1083.71 73.2515C1083.54 73.3558 1083.36 73.4571 1083.19 73.5555C1083.01 73.6568 1082.83 73.7521 1082.65 73.8446C1082.48 73.9399 1082.3 74.0323 1082.12 74.1217C1081.76 74.3035 1081.39 74.4733 1081.03 74.6313C1080.84 74.7147 1080.66 74.7922 1080.47 74.8637C1080.36 74.9114 1080.24 74.9591 1080.13 75.0008C1080.08 75.0218 1080.04 75.0398 1079.99 75.0545C1079.93 75.0813 1079.86 75.1051 1079.8 75.126C1079.78 75.1352 1079.76 75.1432 1079.74 75.1498C1079.61 75.2005 1079.49 75.2452 1079.36 75.2899C1079.17 75.3585 1078.98 75.4211 1078.79 75.4807C1078.6 75.5432 1078.41 75.6028 1078.22 75.6565C1078.03 75.7161 1077.84 75.7697 1077.65 75.8204C1077.46 75.874 1077.27 75.9247 1077.08 75.9694C1076.87 76.023 1076.67 76.0707 1076.46 76.1154C1076.28 76.1572 1076.1 76.1929 1075.92 76.2257C1075.75 76.2614 1075.58 76.2913 1075.41 76.3211C1075.17 76.3628 1074.93 76.4015 1074.69 76.4343C1074.56 76.4552 1074.43 76.4731 1074.3 76.485C1074.24 76.4939 1074.19 76.4999 1074.14 76.5058C1073.97 76.5297 1073.8 76.5476 1073.64 76.5624C1073.6 76.5654 1073.56 76.5714 1073.51 76.5744C1073.33 76.5923 1073.15 76.6072 1072.97 76.622C1072.58 76.6489 1072.19 76.6667 1071.8 76.6757C1071.61 76.6787 1071.41 76.6816 1071.21 76.6816C1071.02 76.6816 1070.82 76.6787 1070.62 76.6727C1070.62 76.6727 1070.62 76.6757 1070.62 76.6727C1070.62 76.6757 1070.62 76.6757 1070.61 76.6727C1070.61 76.6731 1070.61 76.6734 1070.61 76.6736C1070.61 76.6739 1070.61 76.674 1070.61 76.674C1070.61 76.674 1070.61 76.6739 1070.61 76.6736C1070.61 76.6734 1070.61 76.6731 1070.61 76.6727C1070.6 76.6757 1070.59 76.6757 1070.58 76.6727C1070.44 76.6727 1070.3 76.6667 1070.16 76.6578C1070.06 76.6548 1069.96 76.6518 1069.85 76.6429C1069.71 76.6369 1069.58 76.628 1069.44 76.6161C1069.39 76.6161 1069.35 76.6101 1069.3 76.6072C1069.28 76.6067 1069.26 76.6047 1069.24 76.6012C1069.1 76.5893 1068.95 76.5773 1068.81 76.5624C1068.74 76.5565 1068.66 76.5505 1068.59 76.5416C1068.38 76.5177 1068.16 76.4909 1067.94 76.4612C1067.7 76.4313 1067.46 76.3956 1067.22 76.3509C1067.1 76.3359 1066.99 76.3151 1066.88 76.2942C1066.74 76.2704 1066.59 76.2436 1066.45 76.2138C1066.3 76.184 1066.14 76.1542 1065.99 76.1184C1065.87 76.0916 1065.75 76.0648 1065.62 76.035C1065.57 76.0231 1065.51 76.0082 1065.45 75.9933C1065.14 75.9188 1064.83 75.8383 1064.52 75.7489C1064.33 75.6952 1064.14 75.6386 1063.95 75.579C1063.68 75.4986 1063.43 75.4121 1063.17 75.3197C1063.07 75.287 1062.97 75.2512 1062.87 75.2125C1062.77 75.1797 1062.67 75.1409 1062.57 75.1022C1062.48 75.0694 1062.38 75.0336 1062.29 74.9979C1062.15 74.9413 1062 74.8817 1061.86 74.8221C1061.56 74.6998 1061.26 74.5717 1060.97 74.4347C1060.8 74.3542 1060.63 74.2767 1060.47 74.1962C1059.83 73.8833 1059.19 73.5356 1058.57 73.1532C1058.41 73.0608 1058.26 72.9625 1058.1 72.8641C1057.91 72.7449 1057.72 72.6197 1057.54 72.4946C1057.43 72.4231 1057.33 72.3545 1057.23 72.283C1057.04 72.1519 1056.86 72.0177 1056.68 71.8836C1056.58 71.8151 1056.49 71.7436 1056.4 71.6721C1056.07 71.4217 1055.74 71.1595 1055.42 70.8913C1055.27 70.7631 1055.12 70.632 1054.97 70.4979C1054.91 70.4442 1054.85 70.3876 1054.79 70.331C1054.71 70.2654 1054.64 70.2028 1054.58 70.1343L1054.57 70.1283C1054.47 70.0359 1054.36 69.9376 1054.26 69.8393C1054.1 69.6903 1053.95 69.5383 1053.8 69.3833C1053.65 69.2314 1053.5 69.0734 1053.35 68.9184C1053.2 68.7635 1053.06 68.6055 1052.92 68.4446C1052.78 68.2866 1052.64 68.1257 1052.5 67.9618C1052.37 67.8068 1052.24 67.6459 1052.11 67.4879C1051.81 67.1125 1051.52 66.73 1051.25 66.3406C1051.12 66.1618 1051 65.983 1050.88 65.8012C1050.75 65.6164 1050.63 65.4287 1050.51 65.2409C1050.39 65.0532 1050.27 64.8624 1050.16 64.6687C1050.16 64.6621 1050.15 64.6561 1050.15 64.6508C1049.93 64.2724 1049.71 63.8909 1049.51 63.5035C1049.31 63.1101 1049.12 62.7128 1048.93 62.3114C1048.84 62.1118 1048.75 61.9091 1048.67 61.7065C1048.5 61.2982 1048.34 60.8899 1048.19 60.4757C1048.11 60.276 1048.05 60.0763 1047.98 59.8737C1047.98 59.8603 1047.97 59.8473 1047.97 59.835C1047.83 59.4237 1047.7 59.0095 1047.59 58.5923C1047.59 58.5863 1047.59 58.5804 1047.59 58.5744C1047.53 58.3688 1047.48 58.1631 1047.43 57.9545C1047.38 57.7727 1047.34 57.5909 1047.3 57.4062C1047.26 57.2005 1047.21 56.9949 1047.18 56.7863C1047.16 56.679 1047.13 56.5717 1047.12 56.4644C1047.1 56.375 1047.08 56.2826 1047.07 56.1933C1047.05 56.1039 1047.04 56.0114 1047.02 55.9191C1046.99 55.7373 1046.97 55.5555 1046.94 55.3737C1046.91 55.1591 1046.89 54.9446 1046.87 54.727C1046.84 54.4678 1046.82 54.2084 1046.8 53.9462C1046.78 53.7704 1046.77 53.5916 1046.76 53.4128C1046.75 53.2489 1046.75 53.085 1046.74 52.9211C1046.74 52.9124 1046.74 52.9029 1046.74 52.8942C1046.74 52.8939 1046.74 52.8934 1046.74 52.8929C1046.74 52.8924 1046.74 52.8918 1046.74 52.8913C1046.74 52.8907 1046.74 52.8902 1046.74 52.8896C1046.74 52.8891 1046.74 52.8887 1046.74 52.8883C1046.74 52.8853 1046.74 52.8853 1046.74 52.8823C1046.74 52.8819 1046.74 52.8815 1046.74 52.881C1046.74 52.8805 1046.74 52.8799 1046.74 52.8793C1046.74 52.8788 1046.74 52.8782 1046.74 52.8777C1046.74 52.8772 1046.74 52.8767 1046.74 52.8764C1046.74 52.8108 1046.74 52.7453 1046.74 52.6797C1046.73 52.486 1046.73 52.2923 1046.73 52.0986C1046.73 51.9227 1046.73 51.7499 1046.73 51.5741C1046.74 51.3297 1046.75 51.0853 1046.76 50.8409C1046.76 50.7873 1046.77 50.7366 1046.77 50.683C1046.77 50.6293 1046.78 50.5786 1046.78 50.525C1046.78 50.4117 1046.79 50.2985 1046.8 50.1852C1046.8 50.1643 1046.81 50.1434 1046.81 50.1227C1046.82 49.9945 1046.83 49.8664 1046.84 49.7383C1046.86 49.482 1046.89 49.2227 1046.93 48.9664C1046.94 48.8383 1046.96 48.7101 1046.98 48.582C1046.99 48.4926 1047.01 48.4002 1047.02 48.3078C1047.03 48.2154 1047.05 48.1231 1047.07 48.0307C1047.09 47.9085 1047.11 47.7833 1047.13 47.6581C1047.14 47.5836 1047.16 47.5091 1047.17 47.4346C1047.23 47.1366 1047.29 46.8386 1047.36 46.5406C1047.43 46.2396 1047.51 45.9416 1047.59 45.6436C1047.67 45.3426 1047.76 45.0416 1047.85 44.7406C1047.9 44.5886 1047.95 44.4396 1048 44.2906C1048.1 43.9896 1048.2 43.6916 1048.32 43.3966C1048.37 43.2505 1048.43 43.1015 1048.49 42.9555C1048.61 42.6605 1048.73 42.3654 1048.86 42.0764C1048.93 41.9303 1048.99 41.7843 1049.06 41.6383C1049.2 41.3492 1049.34 41.0601 1049.49 40.777C1049.63 40.488 1049.79 40.2049 1049.95 39.9247C1050.11 39.6446 1050.28 39.3644 1050.45 39.0873C1050.53 38.9502 1050.62 38.8101 1050.71 38.676C1050.89 38.4019 1051.08 38.1277 1051.27 37.8595C1051.65 37.317 1052.07 36.7836 1052.5 36.2651ZM1046.8 50.1852C1046.79 50.2985 1046.78 50.4117 1046.78 50.525C1046.78 50.4117 1046.79 50.2985 1046.8 50.1852C1046.8 50.1643 1046.81 50.1434 1046.81 50.1227C1046.8 50.1435 1046.8 50.1644 1046.8 50.1852ZM1047.17 47.4346C1047.16 47.5091 1047.14 47.5836 1047.13 47.6581C1047.14 47.5836 1047.16 47.5091 1047.17 47.4346H1047.17ZM1054.57 70.1283V70.1313C1054.57 70.1343 1054.57 70.1343 1054.58 70.1343L1054.57 70.1283Z" fill="#4B4B4B"/>
<path opacity="0.3" d="M1055.43 70.8912C1050.73 66.9134 1047.69 61.3084 1046.92 55.1891C1046.15 49.0698 1047.7 42.8838 1051.27 37.8594C1050.8 38.3325 1050.35 38.828 1049.91 39.3459C1047.84 41.812 1046.27 44.6639 1045.29 47.7386C1044.32 50.8133 1043.95 54.0507 1044.23 57.266C1044.5 60.4812 1045.4 63.6113 1046.87 66.4775C1048.35 69.3438 1050.38 71.89 1052.83 73.9709C1057.8 78.1735 1064.22 80.2254 1070.7 79.6753C1077.17 79.1252 1083.16 76.0181 1087.35 71.0375C1087.78 70.519 1088.19 69.9879 1088.58 69.4444C1084.24 73.8161 1078.42 76.3916 1072.28 76.6597C1066.14 76.9277 1060.12 74.8686 1055.43 70.8912Z" fill="black"/>
</g>
<path d="M1590.98 46.1984V150H511C511.04 149.451 511.11 148.891 511.11 148.342C511.11 114.98 510.99 81.8619 511 48.5C511 47.734 511 45.5 511 43C511.5 42.9998 512 43 512.9 43.0019C515.5 43.0019 519.017 43.0019 521.713 43.002C526.5 43.0023 530.5 43.0021 535.401 43.0021C538.496 42.8123 542.061 43.1119 545.156 43.0021C550.448 42.8123 556.199 42.9721 561.491 43.0021C575.209 43.072 588.917 43.2717 602.636 43.4615C606.29 43.5115 609.944 43.7412 613.598 43.931C617.682 44.1408 621.766 44.3705 625.849 44.6502C629.843 44.9299 633.837 45.2395 637.83 45.5991C642.643 46.0386 647.455 46.518 652.258 47.0375C657.06 47.5668 661.873 48.0763 666.655 48.7555C672.027 49.5146 677.388 50.3537 682.72 51.3525C691.246 52.9407 699.813 54.429 708.24 56.4467C718.344 58.8739 728.358 61.6907 738.332 64.5774C743.704 66.1357 748.995 68.0335 754.197 70.0911C761.326 72.9179 768.435 75.8146 775.354 79.1009C781.524 82.0275 787.455 85.4736 793.445 88.7898C799.386 92.086 805.257 95.5221 811.177 98.8483C817.697 102.504 824.137 106.32 830.797 109.696C838.534 113.611 846.412 117.257 854.34 120.783C862.407 124.379 870.794 127.136 879.37 129.214C883.903 130.312 888.506 131.231 893.128 131.861C898.31 132.57 903.542 133.259 908.754 133.259C1001.1 133.339 1093.44 133.319 1185.8 133.309C1189.34 133.309 1192.89 133.229 1196.43 133.059C1199.36 132.919 1202.3 132.78 1205.2 132.33C1210.56 131.511 1215.94 130.722 1221.2 129.453C1226.78 128.105 1232.27 126.337 1237.74 124.539C1245.67 121.932 1253.36 118.646 1260.81 114.87C1269.97 110.225 1279 105.361 1288.03 100.447C1294.87 96.7208 1301.61 92.8152 1308.38 88.9596C1317.06 84.0153 1325.87 79.3106 1335.06 75.3651C1343.91 71.5695 1352.87 68.0934 1362.1 65.3665C1371.27 62.6596 1380.47 60.0726 1389.73 57.6853C1395.75 56.1271 1401.87 54.9384 1407.97 53.7198C1413.02 52.721 1418.1 51.9019 1423.17 51.0429C1426.57 50.4635 1429.96 49.8842 1433.38 49.4147C1437.38 48.8554 1441.4 48.4059 1445.41 47.9264C1450.13 47.3671 1454.84 46.7877 1459.57 46.2883C1463.19 45.9087 1466.83 45.5991 1470.47 45.3294C1475.26 44.9698 1480.05 44.6602 1484.85 44.3605C1487.94 44.1707 1491.04 43.9909 1494.13 43.8811C1499.46 43.6913 1504.8 43.4216 1510.13 43.4216C1521.5 43.4216 1533.13 42.8701 1544.5 43C1549.15 43.0499 1553 43 1558 43C1563 43 1568 43 1572.5 43C1575.5 43 1578 43.0784 1581 43C1586.5 43.0067 1583 43 1585.5 43C1587.5 43 1588.5 43 1591 43L1590.98 46.1984Z" fill="#FF9600"/>
<rect y="43" width="511" height="107" fill="#FF9600"/>
<rect x="1591" y="43" width="511" height="107" fill="#FF9600"/>
</g>
<defs>
<clipPath id="clip0_66_36">
<rect width="2102" height="150" fill="white"/>
</clipPath>
<clipPath id="clip1_66_36">
<rect width="270" height="135" fill="white" transform="translate(901)"/>
</clipPath>
</defs>
</svg>
