<svg width="182" height="42" viewBox="0 0 182 42" fill="none" xmlns="http://www.w3.org/2000/svg">
<path d="M22.904 29.056C23.576 31.312 22.568 33.328 20.312 33.856C18.296 34.384 16.28 33.184 15.704 31.12L15.08 28.864C14.312 26.032 13.256 24.736 10.904 24.736H8.504V30.112C8.504 32.368 6.92 34 4.712 34C2.504 34 0.968 32.368 0.968 30.112V4C0.968 1.744 2.504 0.0639992 4.712 0.0639992C6.92 0.0639992 8.504 1.744 8.504 4V18.016H10.904C12.728 18.016 13.544 16.912 14.36 13.936L14.744 12.64C15.272 10.576 17.24 9.424 19.352 10.048C21.464 10.624 22.568 12.592 21.944 14.752L21.608 16.096C21.224 17.488 20.12 19.408 18.488 20.896C20.456 22.192 21.656 24.496 22.28 26.8L22.904 29.056ZM49.8564 20.272C49.8564 22.48 48.8484 24.448 46.4484 24.448H33.0564C33.8244 26.848 35.7924 28.24 38.8164 28.24C40.7844 28.24 42.4164 27.664 43.8564 27.136C45.6804 26.464 46.9284 26.8 47.7924 28.624C48.5124 30.112 48.3684 31.456 46.5924 32.512C44.6724 33.568 41.7924 34.384 38.5284 34.384C30.5124 34.384 25.2324 29.104 25.2324 21.952C25.2324 14.608 31.1364 9.52 38.0484 9.52C44.4324 9.52 49.8564 13.792 49.8564 20.272ZM33.0084 19.312H42.7524C42.6564 17.584 40.9764 15.184 37.9524 15.184C35.4564 15.184 33.7284 16.912 33.0084 19.312ZM73.7353 9.904C75.9433 9.904 77.5273 11.536 77.5273 13.792V30.208C77.5273 37.792 71.5753 41.728 64.5673 41.728C61.8793 41.728 59.5273 41.392 57.6553 40.768C55.7353 40.048 55.2073 38.704 55.7353 36.928C56.3593 35.056 57.7993 34.528 59.7193 35.008C61.3993 35.488 62.5513 35.632 63.7513 35.584C67.6873 35.536 70.1833 33.664 70.1833 29.584V29.536H69.8953C69.0793 30.88 67.1113 32.704 63.2713 32.704C58.3753 32.704 52.9993 29.824 52.9993 22.192V13.792C52.9993 11.536 54.5353 9.904 56.7433 9.904C58.9513 9.904 60.5353 11.536 60.5353 13.792V21.376C60.5353 25.408 62.4073 26.464 65.1913 26.416C68.5033 26.368 69.9913 24.688 69.9913 22.576V13.792C69.9913 11.536 71.5273 9.904 73.7353 9.904ZM95.8055 9.52C100.702 9.52 105.214 12.352 105.214 19.6V30.112C105.214 32.368 103.677 34 101.422 34C99.2135 34 97.6775 32.368 97.6775 30.112V20.8C97.6775 17.2 95.9495 16.24 93.5495 16.24C90.0935 16.24 88.9415 18.4 88.9415 19.696V30.112C88.9415 32.368 87.3575 34 85.1495 34C82.9415 34 81.4055 32.368 81.4055 30.112V4C81.4055 1.744 82.9415 0.0639992 85.1495 0.0639992C87.3575 0.0639992 88.9415 1.744 88.9415 4V12.256H89.2295C90.5735 10.576 92.9255 9.52 95.8055 9.52ZM129.508 9.904C131.716 9.904 133.3 11.536 133.3 13.792V30.208C133.3 32.464 131.716 34 129.604 34C127.684 34 126.532 32.704 126.292 31.408V31.36H126.004C125.236 32.656 122.836 34.384 119.284 34.384C113.812 34.384 109.156 31.216 109.156 23.2V13.792C109.156 11.536 110.692 9.904 112.9 9.904C115.108 9.904 116.692 11.536 116.692 13.792V22.288C116.692 26.32 118.372 27.664 121.204 27.616C124.372 27.616 125.764 25.84 125.764 24.448V13.792C125.764 11.536 127.3 9.904 129.508 9.904ZM151.347 9.52C156.243 9.52 160.755 12.4 160.755 19.504V30.064C160.755 32.32 159.267 34 157.011 34C154.755 34 153.219 32.32 153.219 30.064V20.8C153.219 17.248 151.635 16.24 149.187 16.24C146.067 16.24 144.723 18.208 144.723 19.696V30.064C144.723 32.32 143.187 34 140.931 34C138.675 34 137.187 32.32 137.187 30.064V13.84C137.187 11.584 138.723 9.904 140.979 9.904C142.419 9.904 143.811 10.72 144.195 12.4V12.448H144.483C145.875 10.864 148.227 9.52 151.347 9.52ZM177.968 27.136C180.128 27.136 181.616 28.336 181.616 30.592C181.616 32.8 180.128 34 177.968 34H176.768C170.528 34 167.36 30.976 167.36 24.352V16.72H166.64C164.48 16.72 163.04 15.376 163.04 13.312C163.04 11.248 164.48 9.904 166.64 9.904H167.36V6.064C167.36 3.808 168.896 2.128 171.152 2.128C173.36 2.128 174.896 3.808 174.896 6.064V9.904H177.872C180.08 9.904 181.616 11.248 181.616 13.312C181.616 15.376 180.08 16.72 177.872 16.72H174.896V23.728C174.896 25.984 175.568 27.136 177.44 27.136H177.968Z" fill="#FF9600"/>
</svg>
