<svg width="20" height="18" viewBox="0 0 20 18" fill="none" xmlns="http://www.w3.org/2000/svg">
<path d="M10.5664 0.548299C10.3341 0.325252 10.0191 0.199951 9.69063 0.199951C9.36218 0.199951 9.04718 0.325252 8.8149 0.548299L0.581529 8.4555C0.523946 8.51081 0.478269 8.57648 0.447106 8.64874C0.415942 8.72101 0.399902 8.79846 0.399902 8.87668C0.399902 8.9549 0.415942 9.03236 0.447106 9.10462C0.478269 9.17689 0.523946 9.24255 0.581529 9.29786C0.697823 9.40956 0.85555 9.47232 1.02001 9.47232C1.10145 9.47232 1.18209 9.45691 1.25732 9.42698C1.33256 9.39705 1.40092 9.35317 1.4585 9.29786L9.69063 1.38947L17.9228 9.29786C18.0391 9.40956 18.1968 9.47232 18.3612 9.47232C18.5257 9.47232 18.6834 9.40956 18.7997 9.29786C18.916 9.18616 18.9814 9.03466 18.9814 8.87668C18.9814 8.71871 18.916 8.56721 18.7997 8.4555L15.8839 5.65598V1.73807C15.8839 1.5803 15.8187 1.42898 15.7025 1.31742C15.5864 1.20586 15.4289 1.14318 15.2646 1.14318H14.0259C13.8617 1.14318 13.7042 1.20586 13.588 1.31742C13.4719 1.42898 13.4066 1.5803 13.4066 1.73807V3.27644L10.5664 0.548299Z" fill="white"/>
<path d="M9.69063 2.68156L15.5272 8.28775C14.4966 8.24098 13.4728 8.46987 12.5696 8.94894C11.6665 9.428 10.9195 10.1384 10.4118 11.0011C9.90407 11.8638 9.65562 12.845 9.69407 13.8353C9.73251 14.8256 10.0564 15.7862 10.6295 16.6102H4.11666C3.62389 16.6102 3.15131 16.4222 2.80287 16.0875C2.45443 15.7528 2.25867 15.2988 2.25867 14.8255V9.82017L9.69063 2.68156Z" fill="white"/>
<path d="M15.2646 17.8C16.4144 17.8 17.5171 17.3612 18.3301 16.5803C19.1431 15.7993 19.5999 14.7402 19.5999 13.6358C19.5999 12.5313 19.1431 11.4722 18.3301 10.6912C17.5171 9.91029 16.4144 9.47157 15.2646 9.47157C14.1148 9.47157 13.0121 9.91029 12.1991 10.6912C11.386 11.4722 10.9293 12.5313 10.9293 13.6358C10.9293 14.7402 11.386 15.7993 12.1991 16.5803C13.0121 17.3612 14.1148 17.8 15.2646 17.8ZM17.3443 12.4543L15.6907 15.1027C15.618 15.2191 15.5187 15.318 15.4002 15.3919C15.2818 15.4659 15.1474 15.5129 15.0071 15.5294C14.8669 15.5459 14.7247 15.5315 14.5911 15.4873C14.4576 15.443 14.3363 15.3701 14.2365 15.2741L13.2778 14.3544C13.1617 14.2427 13.0965 14.0912 13.0966 13.9334C13.0967 13.7755 13.1621 13.6242 13.2784 13.5126C13.3947 13.4011 13.5524 13.3385 13.7167 13.3386C13.8811 13.3387 14.0386 13.4015 14.1548 13.5132L14.8323 14.164L16.2815 11.8428C16.3233 11.7757 16.3785 11.7173 16.4438 11.6707C16.5091 11.6242 16.5834 11.5904 16.6623 11.5714C16.7412 11.5524 16.8232 11.5485 16.9037 11.56C16.9841 11.5714 17.0615 11.598 17.1313 11.6381C17.201 11.6783 17.2619 11.7313 17.3104 11.794C17.3588 11.8568 17.394 11.9281 17.4138 12.0038C17.4335 12.0796 17.4376 12.1584 17.4257 12.2357C17.4138 12.313 17.3861 12.3873 17.3443 12.4543Z" fill="white"/>
</svg>
