<svg width="18" height="18" viewBox="0 0 18 18" fill="none" xmlns="http://www.w3.org/2000/svg">
<path d="M13.7981 0.302878C13.9511 0.126895 14.1676 0.0188685 14.4002 0.00253306C14.6328 -0.0138023 14.8623 0.0628894 15.0384 0.215758C16.1759 1.20371 17.0899 2.42289 17.7195 3.79205C17.817 4.0042 17.8263 4.24641 17.7453 4.46541C17.6643 4.6844 17.4996 4.86224 17.2876 4.9598C17.0755 5.05735 16.8334 5.06664 16.6145 4.98561C16.3956 4.90458 16.2178 4.73987 16.1203 4.52772C15.5959 3.38582 14.8342 2.36884 13.8861 1.54455C13.71 1.39162 13.6019 1.17502 13.5854 0.942365C13.5689 0.709706 13.6454 0.479133 13.7981 0.302878ZM2.96549 0.215758C3.14162 0.0626557 3.37134 -0.0141778 3.6041 0.00216024C3.83686 0.0184983 4.0536 0.12667 4.20664 0.302878C4.35968 0.479086 4.43648 0.708897 4.42015 0.941755C4.40382 1.17461 4.29569 1.39144 4.11956 1.54455C3.17141 2.36884 2.40974 3.38582 1.8853 4.52772C1.83843 4.63479 1.7707 4.73144 1.68607 4.81204C1.60144 4.89263 1.50161 4.95555 1.39241 4.99712C1.2832 5.03869 1.16682 5.05808 1.05004 5.05416C0.933266 5.05023 0.818442 5.02307 0.712275 4.97426C0.606107 4.92545 0.510723 4.85597 0.431693 4.76988C0.352663 4.68378 0.29157 4.5828 0.251981 4.47282C0.212393 4.36285 0.195102 4.24608 0.201118 4.12935C0.207135 4.01261 0.236338 3.89825 0.287023 3.79293C0.915663 2.4237 1.82876 1.20423 2.96549 0.215758ZM10.9692 14.96C11.7301 14.96 12.1321 15.8611 11.6245 16.4279C11.2945 16.7966 10.8905 17.0916 10.4388 17.2936C9.98716 17.4956 9.49799 17.6 9.00324 17.6C8.5085 17.6 8.01932 17.4956 7.56765 17.2936C7.11597 17.0916 6.71195 16.7966 6.38196 16.4279C5.8964 15.8858 6.24297 15.0383 6.93964 14.9662L7.0364 14.9609L10.9692 14.96ZM9.00324 0.000160571C10.1978 0.000160571 11.2076 0.794793 11.5322 1.88422L11.5726 2.0347L11.5797 2.07254C12.5495 2.61964 13.3759 3.38889 13.9912 4.31722C14.6065 5.24555 14.9931 6.30654 15.1193 7.41321L15.1439 7.66577L15.1606 7.92009V10.4993L15.1791 10.619C15.2995 11.2674 15.6582 11.8472 16.1845 12.2444L16.3314 12.3473L16.4739 12.4344C17.2304 12.863 16.9665 13.9885 16.1423 14.0748L16.0403 14.08H1.96623C1.06197 14.08 0.746188 12.8797 1.53257 12.4344C1.86774 12.2447 2.15733 11.9839 2.38101 11.6702C2.60469 11.3566 2.75705 10.9978 2.82738 10.619L2.84586 10.4932L2.84674 7.87961C2.90037 6.73023 3.23479 5.61153 3.82073 4.62141C4.40667 3.63129 5.22627 2.79995 6.20779 2.20014L6.42594 2.07166L6.43473 2.03382C6.55881 1.50744 6.8415 1.03187 7.24456 0.671458C7.64762 0.311042 8.1516 0.0831622 8.68834 0.0186403L8.84843 0.00368049L9.00324 0.000160571Z" fill="white"/>
</svg>
