<svg width="20" height="16" viewBox="0 0 20 16" fill="none" xmlns="http://www.w3.org/2000/svg">
<path d="M12.5783 1.88173C11.6739 1.88173 10.8066 2.2288 10.1671 2.84659C9.52762 3.46439 9.16836 4.3023 9.16836 5.17599C9.16836 6.04968 9.52762 6.88759 10.1671 7.50539C10.8066 8.12318 11.6739 8.47025 12.5783 8.47025C13.4827 8.47025 14.35 8.12318 14.9895 7.50539C15.629 6.88759 15.9883 6.04968 15.9883 5.17599C15.9883 4.3023 15.629 3.46439 14.9895 2.84659C14.35 2.2288 13.4827 1.88173 12.5783 1.88173ZM7.21981 5.17599C7.21993 4.36476 7.41739 3.56491 7.79628 2.84095C8.17516 2.11699 8.72487 1.48919 9.40105 1.00818C10.0772 0.527168 10.861 0.206414 11.689 0.0717852C12.5171 -0.0628436 13.3664 -0.00757775 14.1683 0.233125C14.9702 0.473828 15.7023 0.893231 16.3056 1.45751C16.9089 2.02178 17.3665 2.71513 17.6414 3.48164C17.9164 4.24815 18.001 5.06636 17.8885 5.87028C17.776 6.67419 17.4695 7.44131 16.9937 8.10977L19.5999 10.6285L18.2223 11.9594L15.6161 9.44159C14.8115 9.9765 13.8709 10.2888 12.8959 10.3447C11.921 10.4007 10.9487 10.1981 10.0842 9.75892C9.21979 9.31974 8.49603 8.66068 7.99118 7.85295C7.48633 7.04522 7.2196 6.11955 7.21981 5.17599ZM0.399902 0.940507H5.27127V2.82294H0.399902V0.940507ZM0.399902 7.52904H5.27127V9.41147H0.399902V7.52904ZM17.9368 14.1176V16H0.399902V14.1176H17.9368Z" fill="white"/>
</svg>
